<svg width="179" height="48" viewBox="0 0 179 48" fill="none" xmlns="http://www.w3.org/2000/svg">
<path fill-rule="evenodd" clip-rule="evenodd" d="M38.1827 12C37.95 12 37.7099 12.0097 37.4891 12.0189L37.4875 12.0189L37.4859 12.019C32.3659 12.2688 27.9765 15.7468 26.5546 20.6838C26.2377 21.7603 26.0748 22.8834 26.0652 24.0146L26.0652 24.0166V24.1017C26.0652 25.0332 26.2692 26.0912 26.4276 26.7904L26.4287 26.7953L26.4299 26.8002C26.4418 26.8477 26.4561 26.8941 26.4784 26.9458C26.5741 27.3085 26.6834 27.6664 26.8119 28.0242C26.6213 28.3965 26.2688 28.9679 25.8548 29.5986C25.3856 30.3134 24.858 31.0735 24.451 31.641C24.4247 31.6741 24.4084 31.7027 24.402 31.7137C24.3953 31.7255 24.3891 31.7373 24.3843 31.7466C23.8717 32.6104 23.8771 33.6942 24.3694 34.5587L24.3699 34.5595L24.3703 34.5603C24.8764 35.4407 25.8124 35.9815 26.8174 35.9815H37.36L37.3803 35.9824C37.5899 35.9911 37.8026 36 38.0163 36C41.223 36 44.2403 34.7601 46.5251 32.4844C48.8093 30.2185 50.0776 27.2013 50.0968 24.0027L50.0968 24.0014V23.9168C50.0968 23.2856 50.0085 22.5231 49.8285 21.6609L49.8231 21.6349L49.8147 21.6098C49.8147 21.6098 49.8145 21.6093 49.8141 21.6079C49.8137 21.6066 49.8131 21.6047 49.8124 21.6022C49.8108 21.597 49.8091 21.591 49.8067 21.5825L49.806 21.58C49.8037 21.5722 49.8006 21.5612 49.7969 21.549C49.704 21.0822 49.576 20.6184 49.4259 20.1697C49.4396 20.1349 49.4505 20.1016 49.4594 20.071C49.4873 19.9784 49.5813 19.7793 49.75 19.4802C49.912 19.1927 50.123 18.847 50.357 18.479C50.8247 17.7436 51.3748 16.9343 51.7869 16.3526L51.8071 16.3241L51.8148 16.3087C51.821 16.2992 51.8303 16.2843 51.8403 16.266C52.3546 15.3933 52.3503 14.3179 51.8585 13.4435C51.3606 12.5581 50.4217 12.0185 49.4093 12.0185H38.839L38.8188 12.0176C38.6091 12.0089 38.3965 12 38.1827 12ZM28.6692 21.2177C29.8352 17.206 33.4125 14.3811 37.6034 14.1787C37.8085 14.1694 38.001 14.1607 38.1827 14.1607C38.3643 14.1607 38.5572 14.1694 38.7523 14.1787L38.7631 14.1792H49.4278C49.6566 14.1792 49.8767 14.309 49.9917 14.5118C50.1032 14.7082 50.1064 14.9448 50.0013 15.1435C49.5115 15.8367 49.0862 16.5738 48.6746 17.2874L48.6639 17.3059C48.2413 18.0384 47.8326 18.7455 47.3671 19.3977C47.1453 19.7008 47.1011 20.0823 47.2247 20.4221L47.226 20.4258L47.2274 20.4295C47.4299 20.9578 47.5896 21.5247 47.7053 22.0945L47.7073 22.1045L47.7098 22.1144C47.7163 22.1404 47.7227 22.1629 47.7272 22.1785L47.7276 22.1799C47.7293 22.1859 47.7307 22.1909 47.7319 22.1953C47.7331 22.1994 47.7341 22.2031 47.735 22.2065C47.8687 22.887 47.9364 23.4792 47.9364 23.9261V23.9986C47.9002 29.4213 43.4477 33.8393 38.0256 33.8393C37.844 33.8393 37.651 33.8306 37.4559 33.8213L37.4451 33.8208H26.8266C26.5905 33.8208 26.3742 33.6939 26.2627 33.4975L26.2614 33.4951L26.26 33.4928C26.1534 33.31 26.146 33.0739 26.2471 32.8704C26.2621 32.8492 26.2785 32.8259 26.2964 32.8006C26.5582 32.4304 27.1193 31.6368 27.6634 30.8078C27.9614 30.3536 28.2575 29.884 28.4979 29.4643C28.7294 29.0601 28.931 28.6655 29.0185 28.3678C29.0973 28.1234 29.08 27.8664 28.9859 27.6431C28.8105 27.2039 28.6693 26.7539 28.5539 26.2923L28.5496 26.2753L28.524 26.1982C28.337 25.3468 28.2441 24.6329 28.2441 24.1017V24.0299C28.2532 23.101 28.3859 22.1829 28.6503 21.2926L28.6692 21.229V21.2177Z" fill="#0043E0"/>
<path fill-rule="evenodd" clip-rule="evenodd" d="M34.0042 24.1201C34.0042 26.4031 35.8632 28.2625 38.1457 28.2625C40.4282 28.2625 42.2872 26.4031 42.2872 24.1201C42.2872 21.8372 40.4282 19.9778 38.1457 19.9778C35.8632 19.9778 34.0042 21.8372 34.0042 24.1201ZM36.2413 24.1201C36.2413 23.0647 37.0906 22.2153 38.1457 22.2153C39.1868 22.2153 40.0501 23.0653 40.0501 24.1201C40.0501 25.1756 39.2008 26.025 38.1457 26.025C37.0906 26.025 36.2413 25.1756 36.2413 24.1201Z" fill="#0043E0"/>
<path d="M37.3592 18.1752C37.9667 18.0981 38.3967 17.5432 38.3196 16.9358C38.2425 16.3283 37.6876 15.8983 37.0802 15.9754C36.3571 16.0671 35.6478 16.2549 34.9715 16.5351C33.9754 16.9477 33.0704 17.5524 32.308 18.3148C31.875 18.7478 31.875 19.4497 32.308 19.8827C32.741 20.3157 33.4429 20.3157 33.8759 19.8827C34.4324 19.3263 35.093 18.8848 35.8201 18.5837C36.3137 18.3792 36.8314 18.2421 37.3592 18.1752Z" fill="#0043E0"/>
<path d="M39.4581 17.0597C39.664 16.4831 40.2985 16.1826 40.8751 16.3886C42.4697 16.9582 43.8491 18.0068 44.8245 19.391C45.7998 20.7751 46.3234 22.4269 46.3234 24.1201C46.3234 24.7325 45.827 25.2288 45.2147 25.2288C44.6024 25.2288 44.106 24.7325 44.106 24.1201C44.106 22.8842 43.7238 21.6785 43.0119 20.6682C42.3 19.6579 41.2931 18.8925 40.1292 18.4767C39.5526 18.2708 39.2521 17.6363 39.4581 17.0597Z" fill="#0043E0"/>
<path d="M44.7808 26.804C45.3068 27.1175 45.479 27.798 45.1655 28.324C44.7372 29.0424 44.2043 29.6868 43.5883 30.2381C43.132 30.6464 42.4311 30.6076 42.0228 30.1513C41.6144 29.695 41.6533 28.9941 42.1096 28.5857C42.5593 28.1833 42.9482 27.713 43.2608 27.1886C43.5743 26.6626 44.2549 26.4904 44.7808 26.804Z" fill="#0043E0"/>
<path d="M34.1362 30.1069C34.3923 29.5507 35.0508 29.3074 35.607 29.5635C36.6129 30.0266 37.7275 30.202 38.827 30.0701C39.435 29.9972 39.9869 30.4309 40.0599 31.0389C40.1328 31.6469 39.6991 32.1988 39.0911 32.2717C37.5847 32.4524 36.0577 32.2122 34.6796 31.5776C34.1234 31.3215 33.8802 30.6631 34.1362 30.1069Z" fill="#0043E0"/>
<path d="M32.3997 22.3129C32.5844 21.7291 32.2608 21.1061 31.677 20.9215C31.0932 20.7368 30.4702 21.0604 30.2856 21.6442C29.9705 22.6402 29.8477 23.6897 29.9265 24.7364C29.9725 25.347 30.5047 25.8047 31.1153 25.7588C31.7259 25.7128 32.1836 25.1806 32.1376 24.57C32.0801 23.806 32.1698 23.0399 32.3997 22.3129Z" fill="#0043E0"/>
<path d="M58.5332 31.2391L64.4853 16.7217H68.5709L74.4401 31.2391H70.5826L69.2553 27.7342H63.5936L62.2455 31.2391H58.5332ZM64.672 24.8929H68.1976L66.4556 20.2474L64.672 24.8929Z" fill="black"/>
<path d="M78.2022 20.2681V26.5728C78.2022 27.1673 78.3819 27.6512 78.7414 28.0245C79.1147 28.384 79.5986 28.5638 80.1931 28.5638C80.6217 28.5638 81.0019 28.4877 81.3338 28.3356C81.6656 28.1835 81.9421 27.9692 82.1633 27.6927V20.2681H85.5231V31.2391H82.1633V30.4925C81.7624 30.7967 81.3061 31.0317 80.7946 31.1976C80.2968 31.3635 79.7714 31.4465 79.2184 31.4465C77.9326 31.4465 76.8818 31.0317 76.066 30.2022C75.2503 29.3726 74.8424 28.3149 74.8424 27.0291V20.2681H78.2022Z" fill="black"/>
<path d="M89.1592 27.9001V23.0679H86.9401V20.2681H89.1592V17.4476L92.519 16.7217V20.2681H95.5884V23.0679H92.519V27.2365C92.519 27.7204 92.6227 28.066 92.8301 28.2734C93.0513 28.467 93.4315 28.5638 93.9707 28.5638C94.2334 28.5638 94.4823 28.5499 94.7173 28.5223C94.9524 28.4808 95.2081 28.4186 95.4847 28.3356V31.0525C95.1805 31.1492 94.7934 31.2253 94.3233 31.2806C93.8532 31.3497 93.4591 31.3843 93.1411 31.3843C91.8277 31.3843 90.8322 31.0939 90.1547 30.5132C89.4911 29.9187 89.1592 29.0477 89.1592 27.9001Z" fill="black"/>
<path d="M96.8999 31.2391V16.7217L100.26 15.9958V21.0147C100.661 20.7105 101.11 20.4755 101.608 20.3096C102.119 20.1437 102.652 20.0607 103.205 20.0607C104.49 20.0607 105.541 20.4755 106.357 21.3051C107.173 22.1346 107.581 23.1923 107.581 24.4782V31.2391H104.221V24.9344C104.221 24.3399 104.034 23.8629 103.661 23.5034C103.301 23.1301 102.824 22.9435 102.23 22.9435C101.801 22.9435 101.421 23.0195 101.089 23.1716C100.757 23.3237 100.481 23.538 100.26 23.8145V31.2391H96.8999Z" fill="black"/>
<path d="M114.659 31.2806C113.885 31.2806 113.152 31.1354 112.461 30.8451C111.784 30.5547 111.196 30.1607 110.698 29.6629C110.201 29.1514 109.806 28.5569 109.516 27.8794C109.226 27.1881 109.081 26.4553 109.081 25.681C109.081 24.9068 109.226 24.1809 109.516 23.5034C109.82 22.8259 110.228 22.2383 110.74 21.7406C111.251 21.2429 111.853 20.8488 112.544 20.5585C113.249 20.2681 113.996 20.1229 114.784 20.1229C115.282 20.1229 115.766 20.1852 116.236 20.3096C116.706 20.434 117.141 20.6138 117.542 20.8488V20.2681H120.86V31.1354C120.86 32.6148 120.37 33.7485 119.388 34.5366C118.406 35.3385 117.003 35.7395 115.178 35.7395C114.307 35.7395 113.47 35.6565 112.668 35.4906C111.867 35.3247 111.141 35.0897 110.491 34.7855L111.611 32.1724C112.205 32.4489 112.793 32.6563 113.374 32.7945C113.954 32.9328 114.535 33.0019 115.116 33.0019C115.904 33.0019 116.498 32.8429 116.899 32.5249C117.3 32.2069 117.501 31.7299 117.501 31.0939V30.4095C117.086 30.6861 116.637 30.9004 116.153 31.0525C115.669 31.2045 115.171 31.2806 114.659 31.2806ZM112.378 25.681C112.378 26.4691 112.655 27.1328 113.208 27.672C113.761 28.1974 114.438 28.4601 115.24 28.4601C115.696 28.4601 116.111 28.3909 116.484 28.2527C116.872 28.1144 117.21 27.9139 117.501 27.6512V23.773C117.21 23.5242 116.872 23.3306 116.484 23.1923C116.097 23.0402 115.689 22.9642 115.261 22.9642C114.459 22.9642 113.775 23.2269 113.208 23.7523C112.655 24.2777 112.378 24.9206 112.378 25.681Z" fill="black"/>
<path d="M132.984 29.7874C132.292 30.3681 131.58 30.7898 130.847 31.0525C130.129 31.3152 129.313 31.4465 128.4 31.4465C127.571 31.4465 126.79 31.3013 126.057 31.011C125.324 30.7206 124.688 30.3197 124.149 29.8081C123.623 29.2965 123.202 28.6951 122.884 28.0038C122.579 27.2987 122.427 26.5521 122.427 25.764C122.427 24.9759 122.573 24.2362 122.863 23.5449C123.167 22.8398 123.575 22.2314 124.087 21.7199C124.598 21.2083 125.2 20.8073 125.891 20.517C126.596 20.2266 127.349 20.0815 128.151 20.0815C128.953 20.0815 129.693 20.2335 130.37 20.5377C131.048 20.8419 131.629 21.2567 132.113 21.7821C132.61 22.3075 132.997 22.9435 133.274 23.6901C133.55 24.4229 133.689 25.2179 133.689 26.0751V26.9046H125.87C126.091 27.4162 126.437 27.8379 126.907 28.1697C127.377 28.4877 127.93 28.6467 128.566 28.6467C129.022 28.6467 129.437 28.5776 129.811 28.4393C130.184 28.2872 130.502 28.0799 130.765 27.8172L132.984 29.7874ZM128.089 22.819C127.536 22.819 127.059 22.9711 126.658 23.2753C126.257 23.5795 125.974 24.0081 125.808 24.5611H130.391C130.211 24.0357 129.914 23.614 129.499 23.296C129.098 22.978 128.628 22.819 128.089 22.819Z" fill="black"/>
<path d="M138.764 31.4258C137.603 31.4258 136.649 31.1078 135.902 30.4718C135.156 29.8358 134.782 29.02 134.782 28.0245C134.782 26.9876 135.176 26.1788 135.964 25.5981C136.766 25.0174 137.879 24.727 139.303 24.727C139.732 24.727 140.154 24.7547 140.568 24.81C140.983 24.8653 141.391 24.9413 141.792 25.0381V24.4989C141.792 23.9459 141.612 23.538 141.253 23.2753C140.907 22.9988 140.389 22.8605 139.697 22.8605C139.269 22.8605 138.785 22.9296 138.246 23.0679C137.706 23.2062 137.084 23.4274 136.379 23.7315L135.176 21.2636C136.061 20.8626 136.925 20.5654 137.769 20.3718C138.626 20.1644 139.469 20.0607 140.299 20.0607C141.82 20.0607 143.002 20.4271 143.845 21.1599C144.689 21.8789 145.11 22.8951 145.11 24.2085V31.2391H141.792V30.5755C141.35 30.8796 140.88 31.1009 140.382 31.2391C139.898 31.3635 139.359 31.4258 138.764 31.4258ZM137.976 27.9623C137.976 28.308 138.128 28.5776 138.432 28.7712C138.736 28.9647 139.158 29.0615 139.697 29.0615C140.098 29.0615 140.472 29.02 140.817 28.9371C141.177 28.8541 141.502 28.7228 141.792 28.543V27.1328C141.474 27.0498 141.149 26.9876 140.817 26.9461C140.485 26.9046 140.147 26.8839 139.801 26.8839C139.22 26.8839 138.771 26.9807 138.453 27.1742C138.135 27.354 137.976 27.6167 137.976 27.9623Z" fill="black"/>
<path d="M147.107 31.2391V20.2681H150.467V21.3673C150.826 20.9387 151.248 20.6068 151.732 20.3718C152.216 20.1368 152.755 20.0192 153.35 20.0192C153.668 20.0331 153.924 20.0607 154.117 20.1022C154.311 20.1298 154.477 20.1921 154.615 20.2889V23.2131C154.394 23.1163 154.145 23.0402 153.868 22.9849C153.592 22.9158 153.308 22.8812 153.018 22.8812C152.493 22.8812 152.002 23.0057 151.545 23.2545C151.103 23.5034 150.744 23.8422 150.467 24.2708V31.2391H147.107Z" fill="black"/>
</svg>
