<svg width="24" height="24" viewBox="0 0 24 24" fill="none" xmlns="http://www.w3.org/2000/svg">
<path fill-rule="evenodd" clip-rule="evenodd" d="M12.0541 2.29944C11.8727 2.29944 11.6855 2.30698 11.5135 2.31415L11.5123 2.31421L11.5109 2.31427C7.52041 2.50897 4.09927 5.21975 2.99109 9.06765C2.74404 9.90669 2.6171 10.782 2.60963 11.6637L2.60961 11.6652V11.7315C2.60961 12.4576 2.76859 13.2822 2.89208 13.8271L2.89295 13.8309L2.8939 13.8348C2.90316 13.8718 2.9143 13.908 2.93167 13.9482C3.00625 14.231 3.09145 14.5098 3.19157 14.7888C3.04302 15.0789 2.76834 15.5243 2.44563 16.0159C2.07991 16.573 1.66869 17.1654 1.35153 17.6077C1.33099 17.6335 1.31828 17.6557 1.31336 17.6644C1.30811 17.6736 1.30327 17.6827 1.29956 17.69C0.899977 18.3633 0.904217 19.2081 1.28791 19.8818L1.28827 19.8824L1.28862 19.883C1.6831 20.5692 2.41262 20.9908 3.19588 20.9908H11.4129L11.4287 20.9914C11.592 20.9982 11.7578 21.0051 11.9244 21.0051C14.4236 21.0051 16.7753 20.0387 18.5562 18.265C20.3364 16.499 21.325 14.1474 21.34 11.6544V11.6534V11.5875C21.34 11.0955 21.2711 10.5012 21.1308 9.82916L21.1266 9.80895L21.1201 9.78937C21.1201 9.78937 21.1199 9.78899 21.1196 9.78791C21.1193 9.78684 21.1189 9.7854 21.1183 9.78347C21.117 9.77935 21.1157 9.77474 21.1139 9.76812L21.1133 9.7661C21.1116 9.76005 21.1091 9.75151 21.1062 9.742C21.0338 9.37816 20.934 9.01664 20.8171 8.66694C20.8278 8.63982 20.8363 8.6139 20.8432 8.58997C20.8649 8.51782 20.9382 8.36268 21.0696 8.12955C21.1959 7.90546 21.3604 7.63602 21.5428 7.34921C21.9073 6.776 22.336 6.14525 22.6573 5.69189L22.673 5.66965L22.679 5.65768C22.6838 5.65025 22.6911 5.63866 22.6988 5.6244C23.0997 4.9442 23.0963 4.10605 22.713 3.42448C22.3249 2.73439 21.5932 2.31385 20.8041 2.31385H12.5656L12.5498 2.31319C12.3864 2.30636 12.2207 2.29944 12.0541 2.29944ZM4.63916 9.48373C5.54794 6.35699 8.33613 4.1553 11.6026 3.99755C11.7625 3.99027 11.9124 3.98353 12.0541 3.98353C12.1956 3.98353 12.3459 3.99029 12.498 3.99753L12.5065 3.99793H20.8186C20.9969 3.99793 21.1684 4.09911 21.2581 4.25713C21.3449 4.41023 21.3474 4.59463 21.2655 4.74953C20.8838 5.28975 20.5524 5.86427 20.2315 6.42045L20.2232 6.4349C19.8938 7.00577 19.5753 7.55687 19.2124 8.06523C19.0396 8.3015 19.0051 8.59885 19.1014 8.86369L19.1024 8.86658L19.1036 8.86946C19.2614 9.28118 19.3858 9.72305 19.476 10.1672L19.4776 10.1749L19.4795 10.1826C19.4846 10.2029 19.4896 10.2204 19.493 10.2326L19.4934 10.2337C19.4947 10.2383 19.4958 10.2422 19.4967 10.2457C19.4977 10.2489 19.4985 10.2518 19.4991 10.2544C19.6033 10.7848 19.6561 11.2464 19.6561 11.5947V11.6512C19.6279 15.8777 16.1576 19.321 11.9316 19.321C11.7901 19.321 11.6397 19.3143 11.4877 19.3071L11.4791 19.3067H3.20309C3.01909 19.3067 2.85043 19.2078 2.76357 19.0547L2.76254 19.0528L2.76147 19.051C2.6784 18.9086 2.67257 18.7246 2.75138 18.5659C2.76305 18.5494 2.77589 18.5312 2.78983 18.5115C2.99386 18.223 3.43121 17.6044 3.85525 16.9583C4.08757 16.6043 4.31833 16.2384 4.50569 15.9112C4.6861 15.5962 4.84323 15.2885 4.9114 15.0565C4.97284 14.8662 4.95935 14.6658 4.88603 14.4918C4.74933 14.1494 4.63926 13.7988 4.54933 13.4389L4.54601 13.4256L4.52599 13.3656C4.38024 12.702 4.30789 12.1456 4.30789 11.7315V11.6756C4.31492 10.9516 4.41837 10.2361 4.62444 9.54214L4.63916 9.49256V9.48373Z" fill="#0043E0"/>
<path fill-rule="evenodd" clip-rule="evenodd" d="M8.79733 11.7461C8.79733 13.5254 10.2462 14.9747 12.0252 14.9747C13.8042 14.9747 15.2531 13.5254 15.2531 11.7461C15.2531 9.96669 13.8042 8.51746 12.0252 8.51746C10.2462 8.51746 8.79733 9.96669 8.79733 11.7461ZM10.5409 11.7461C10.5409 10.9234 11.2029 10.2614 12.0252 10.2614C12.8367 10.2614 13.5095 10.9239 13.5095 11.7461C13.5095 12.5687 12.8476 13.2307 12.0252 13.2307C11.2029 13.2307 10.5409 12.5687 10.5409 11.7461Z" fill="#0043E0"/>
<path d="M11.4123 7.11246C11.8857 7.0524 12.2209 6.61991 12.1607 6.14646C12.1007 5.67301 11.6683 5.3379 11.1947 5.39795C10.6311 5.46945 10.0784 5.61584 9.55126 5.83417C8.7749 6.15575 8.06949 6.6271 7.47529 7.22129C7.13783 7.55875 7.13783 8.10589 7.47529 8.44334C7.81276 8.78081 8.35989 8.78081 8.69735 8.44334C9.13106 8.00963 9.64595 7.66559 10.2126 7.43087C10.5973 7.2715 11.0008 7.16465 11.4123 7.11246Z" fill="#0043E0"/>
<path d="M13.0481 6.24311C13.2086 5.79368 13.7031 5.55949 14.1526 5.72003C15.3953 6.16396 16.4705 6.98131 17.2307 8.06009C17.9909 9.13887 18.3989 10.4263 18.3989 11.7461C18.3989 12.2233 18.012 12.6101 17.5348 12.6101C17.0575 12.6101 16.6707 12.2233 16.6707 11.7461C16.6707 10.7828 16.3729 9.84303 15.818 9.05561C15.2631 8.26819 14.4783 7.67159 13.5711 7.34755C13.1217 7.18702 12.8875 6.69254 13.0481 6.24311Z" fill="#0043E0"/>
<path d="M17.1967 13.8377C17.6066 14.0821 17.7409 14.6125 17.4965 15.0224C17.1627 15.5823 16.7474 16.0845 16.2673 16.5143C15.9116 16.8325 15.3653 16.8022 15.047 16.4466C14.7287 16.0909 14.7591 15.5447 15.1147 15.2264C15.4652 14.9128 15.7684 14.5462 16.012 14.1375C16.2563 13.7276 16.7867 13.5933 17.1967 13.8377Z" fill="#0043E0"/>
<path d="M8.90025 16.4119C9.09985 15.9785 9.61307 15.7889 10.0466 15.9885C10.8306 16.3495 11.6993 16.4862 12.5562 16.3834C13.0301 16.3265 13.4603 16.6646 13.5171 17.1385C13.574 17.6123 13.2359 18.0425 12.7621 18.0993C11.588 18.2401 10.3979 18.0528 9.32375 17.5583C8.89025 17.3587 8.70065 16.8455 8.90025 16.4119Z" fill="#0043E0"/>
<path d="M7.54679 10.3375C7.69071 9.88245 7.43851 9.39691 6.9835 9.25299C6.52847 9.10906 6.04293 9.36126 5.89901 9.81628C5.65345 10.5926 5.55772 11.4106 5.61913 12.2264C5.65495 12.7023 6.06979 13.0591 6.54568 13.0232C7.02157 12.9873 7.37832 12.5725 7.3425 12.0966C7.29768 11.5012 7.36755 10.9041 7.54679 10.3375Z" fill="#0043E0"/>
</svg>
