<svg width="48" height="48" viewBox="0 0 48 48" fill="none" xmlns="http://www.w3.org/2000/svg">
<path d="M40.6694 25.6971L35.6403 22.8274L34.7729 22.4541L14.1992 22.5941V32.9881H40.6694V25.6971Z" fill="white"/>
<path d="M31.5134 32.0319C31.7595 31.1918 31.6656 30.4221 31.2553 29.8504C30.8802 29.3256 30.2473 29.0223 29.4851 28.9873L15.0544 28.8008C14.9605 28.8008 14.8786 28.7542 14.8315 28.6843C14.7844 28.6143 14.7728 28.5209 14.7963 28.4275C14.8431 28.2875 14.9837 28.1825 15.1363 28.1707L29.696 27.9842C31.4192 27.9026 33.2949 26.5143 33.9513 24.8111L34.7836 22.6531C34.8187 22.5597 34.8303 22.4666 34.8071 22.3732C33.8697 18.1496 30.0834 15 25.5585 15C21.3851 15 17.8449 17.6832 16.5788 21.4045C15.7205 20.7683 14.6548 20.4731 13.5896 20.5763C11.5848 20.7747 9.97911 22.3729 9.77976 24.3675C9.73299 24.8808 9.76815 25.3825 9.88524 25.8489C6.61409 25.9423 4 28.6021 4 31.8801C4 32.1718 4.02355 32.4633 4.05871 32.7551C4.0688 32.8225 4.10262 32.8841 4.15414 32.9289C4.20567 32.9738 4.27153 32.999 4.33999 33H30.9744C31.1266 33 31.2676 32.895 31.3144 32.7432L31.5134 32.0319Z" fill="#F38020"/>
<path d="M36.1125 22.804C35.9835 22.804 35.8429 22.804 35.7138 22.8155C35.62 22.8155 35.538 22.8855 35.5029 22.9789L34.9403 24.927C34.6942 25.767 34.7881 26.5368 35.1984 27.1085C35.5735 27.6333 36.2064 27.9366 36.9686 27.9716L40.0401 28.1581C40.134 28.1581 40.2159 28.2047 40.263 28.2746C40.3101 28.3446 40.3217 28.4496 40.2981 28.5314C40.2514 28.6714 40.1107 28.7763 39.9582 28.7882L36.757 28.975C35.0219 29.0566 33.1581 30.4449 32.5017 32.1481L32.2672 32.7429C32.2204 32.8594 32.3024 32.9762 32.4314 32.9762H43.4274C43.5564 32.9762 43.6735 32.8947 43.7087 32.7663C43.8961 32.0896 44.0019 31.378 44.0019 30.6432C44.0019 26.3269 40.4617 22.804 36.1125 22.804Z" fill="#FAAE40"/>
</svg>
