<svg width="28" height="30" viewBox="0 0 28 30" fill="none" xmlns="http://www.w3.org/2000/svg">
<path d="M0 14C0.541667 14 1.05729 13.8958 1.54688 13.6875C2.03646 13.4688 2.45833 13.1823 2.8125 12.8281C3.17708 12.4635 3.46354 12.0417 3.67188 11.5625C3.89062 11.0729 4 10.5521 4 10C4 9.26042 3.98438 8.52083 3.95312 7.78125C3.92188 7.04167 3.94271 6.32292 4.01562 5.625C4.09896 4.91667 4.26562 4.23438 4.51562 3.57812C4.77604 2.92188 5.1875 2.3125 5.75 1.75C6.3125 1.1875 6.96354 0.755208 7.70312 0.453125C8.44271 0.151042 9.20833 0 10 0V2C9.44792 2 8.92708 2.10938 8.4375 2.32812C7.95833 2.53646 7.53646 2.82292 7.17188 3.1875C6.81771 3.54167 6.53125 3.96354 6.3125 4.45312C6.10417 4.94271 6 5.45833 6 6C6 6.58333 6.01042 7.16146 6.03125 7.73438C6.05208 8.29688 6.05208 8.85417 6.03125 9.40625C6.02083 9.94792 5.97396 10.4792 5.89062 11C5.80729 11.5104 5.66667 12 5.46875 12.4688C5.27083 12.9375 5 13.3854 4.65625 13.8125C4.3125 14.2396 3.86979 14.6354 3.32812 15C3.86979 15.3646 4.3125 15.7604 4.65625 16.1875C5 16.6146 5.27083 17.0625 5.46875 17.5312C5.66667 18 5.80729 18.4948 5.89062 19.0156C5.97396 19.526 6.02083 20.0573 6.03125 20.6094C6.05208 21.151 6.05208 21.7083 6.03125 22.2812C6.01042 22.8438 6 23.4167 6 24C6 24.5521 6.10417 25.0729 6.3125 25.5625C6.53125 26.0417 6.81771 26.4635 7.17188 26.8281C7.53646 27.1823 7.95833 27.4688 8.4375 27.6875C8.92708 27.8958 9.44792 28 10 28V30C9.20833 30 8.44271 29.849 7.70312 29.5469C6.96354 29.2448 6.3125 28.8125 5.75 28.25C5.1875 27.6875 4.77604 27.0781 4.51562 26.4219C4.26562 25.7656 4.09896 25.0885 4.01562 24.3906C3.94271 23.6823 3.92188 22.9583 3.95312 22.2188C3.98438 21.4792 4 20.7396 4 20C4 19.4583 3.89062 18.9427 3.67188 18.4531C3.46354 17.9635 3.17708 17.5417 2.8125 17.1875C2.45833 16.8229 2.03646 16.5365 1.54688 16.3281C1.05729 16.1094 0.541667 16 0 16V14ZM18 0C18.7917 0 19.5573 0.151042 20.2969 0.453125C21.0365 0.755208 21.6875 1.1875 22.25 1.75C22.8125 2.3125 23.2188 2.92188 23.4688 3.57812C23.7292 4.23438 23.8958 4.91667 23.9688 5.625C24.0521 6.32292 24.0781 7.04167 24.0469 7.78125C24.0156 8.52083 24 9.26042 24 10C24 10.5521 24.1042 11.0729 24.3125 11.5625C24.5312 12.0417 24.8177 12.4635 25.1719 12.8281C25.5365 13.1823 25.9583 13.4688 26.4375 13.6875C26.9271 13.8958 27.4479 14 28 14V16C27.4479 16 26.9271 16.1094 26.4375 16.3281C25.9583 16.5365 25.5365 16.8229 25.1719 17.1875C24.8177 17.5417 24.5312 17.9635 24.3125 18.4531C24.1042 18.9427 24 19.4583 24 20C24 20.7396 24.0156 21.4792 24.0469 22.2188C24.0781 22.9583 24.0521 23.6823 23.9688 24.3906C23.8958 25.0885 23.7292 25.7656 23.4688 26.4219C23.2188 27.0781 22.8125 27.6875 22.25 28.25C21.6875 28.8125 21.0365 29.2448 20.2969 29.5469C19.5573 29.849 18.7917 30 18 30V28C18.5417 28 19.0573 27.8958 19.5469 27.6875C20.0365 27.4688 20.4583 27.1823 20.8125 26.8281C21.1771 26.4635 21.4635 26.0417 21.6719 25.5625C21.8906 25.0729 22 24.5521 22 24C22 23.4167 21.9896 22.8438 21.9688 22.2812C21.9479 21.7083 21.9427 21.151 21.9531 20.6094C21.974 20.0573 22.026 19.526 22.1094 19.0156C22.1927 18.4948 22.3333 18 22.5312 17.5312C22.7292 17.0625 23 16.6146 23.3438 16.1875C23.6875 15.7604 24.1302 15.3646 24.6719 15C24.1302 14.6354 23.6875 14.2396 23.3438 13.8125C23 13.3854 22.7292 12.9375 22.5312 12.4688C22.3333 12 22.1927 11.5104 22.1094 11C22.026 10.4792 21.974 9.94792 21.9531 9.40625C21.9427 8.85417 21.9479 8.29688 21.9688 7.73438C21.9896 7.16146 22 6.58333 22 6C22 5.45833 21.8906 4.94271 21.6719 4.45312C21.4635 3.96354 21.1771 3.54167 20.8125 3.1875C20.4583 2.82292 20.0365 2.53646 19.5469 2.32812C19.0573 2.10938 18.5417 2 18 2V0Z" fill="#898989"/>
</svg>
