<svg width="23" height="20" viewBox="0 0 23 20" fill="none" xmlns="http://www.w3.org/2000/svg">
<path d="M6.67828 0C6.08271 0 5.50471 0.349609 5.20986 0.875L0.554639 9.125C0.259782 9.65625 0.259782 10.3438 0.554639 10.875L5.20986 19.125C5.50471 19.6523 6.08271 20 6.67828 20H15.9887C16.5843 20 17.1623 19.6504 17.4571 19.125L22.1124 10.875C22.4072 10.3438 22.4072 9.65625 22.1124 9.125L17.4571 0.875C17.1623 0.349609 16.5843 0 15.9887 0H6.67828ZM6.67828 1H15.9887C16.225 1 16.4632 1.14648 16.5823 1.35938L21.2375 9.60938C21.3645 9.83789 21.3606 10.168 21.2375 10.3906L16.5823 18.6406C16.4652 18.8516 16.225 19 15.9887 19H6.67828C6.442 19 6.20377 18.8535 6.08466 18.6406L1.42944 10.3906C1.30252 10.1621 1.30642 9.83203 1.42944 9.60938L6.08466 1.35938C6.20182 1.14844 6.442 1 6.67828 1ZM6.99071 5C6.8716 5.02539 6.78763 5.18359 6.85012 5.29688L9.3808 10L6.85012 14.6875C6.77787 14.8164 6.88331 15 7.02195 15H8.55286C8.62511 14.9941 8.69541 14.9551 8.7247 14.8906L11.3023 10.0938C11.3159 10.0684 11.3276 10.041 11.3335 10.0156C11.3394 10.041 11.3511 10.0684 11.3647 10.0938L13.9423 14.8906C13.9755 14.9551 14.0419 15 14.1141 15H15.645C15.7817 15 15.8891 14.8164 15.8169 14.6875L13.2862 10L15.8169 5.29688C15.8794 5.17383 15.7778 5 15.645 5H14.1141C14.0419 5 13.9794 5.04492 13.9423 5.10938L11.3647 9.89062C11.3511 9.91602 11.3394 9.93945 11.3335 9.96875C11.3276 9.93945 11.3159 9.91602 11.3023 9.89062L8.7247 5.10938C8.6915 5.05078 8.61926 5 8.55286 5H6.99071Z" fill="#201F1E"/>
</svg>
