<svg width="24" height="24" viewBox="0 0 24 24" fill="currentColor" xmlns="http://www.w3.org/2000/svg">
<mask id="mask0_367_2760" style="mask-type:alpha" maskUnits="userSpaceOnUse" x="0" y="0" width="24" height="24">
<rect width="24" height="24" transform="matrix(-1 0 0 1 24 0)" />
</mask>
<g mask="url(#mask0_367_2760)">
<path d="M20 20C20.55 20 21.0208 19.8042 21.4125 19.4125C21.8042 19.0208 22 18.55 22 18V6C22 5.45 21.8042 4.97917 21.4125 4.5875C21.0208 4.19583 20.55 4 20 4H4C3.45 4 2.97917 4.19583 2.5875 4.5875C2.19583 4.97917 2 5.45 2 6V18C2 18.55 2.19583 19.0208 2.5875 19.4125C2.97917 19.8042 3.45 20 4 20H20ZM20 18H4V6H20V18ZM18 15H12V9H18V15Z" />
</g>
</svg>
