<svg width="41" height="40" viewBox="0 0 41 40" fill="none" xmlns="http://www.w3.org/2000/svg">
<path d="M0.5 6C0.5 2.68629 3.18629 0 6.5 0H34.5C37.8137 0 40.5 2.68629 40.5 6V34C40.5 37.3137 37.8137 40 34.5 40H6.5C3.18629 40 0.5 37.3137 0.5 34V6Z" fill="#001040" fill-opacity="0.063"/>
<rect width="18" height="18" transform="translate(11.5 11)" fill="white" fill-opacity="0.01"/>
<path fill-rule="evenodd" clip-rule="evenodd" d="M14.5002 12.2H26.5002C27.4943 12.2 28.3002 13.0058 28.3002 14V26C28.3002 26.994 27.4943 27.8 26.5002 27.8H14.5002C13.5061 27.8 12.7002 26.994 12.7002 26V14C12.7002 13.0058 13.5061 12.2 14.5002 12.2ZM14.5002 13.4C14.1688 13.4 13.9002 13.6686 13.9002 14V21.0363L15.9184 19.0181C16.0219 18.9146 16.1631 18.8575 16.3095 18.86C16.4559 18.8625 16.595 18.9244 16.6949 19.0315L20.9485 23.5881L24.3184 20.2181C24.5292 20.0072 24.8712 20.0072 25.082 20.2181L27.1002 22.2363V14C27.1002 13.6686 26.8315 13.4 26.5002 13.4H14.5002ZM13.9002 26V22.5636L16.2868 20.177L20.5375 24.7305L22.2296 26.6H14.5002C14.1688 26.6 13.9002 26.3313 13.9002 26ZM26.5002 26.6H23.6862L21.6802 24.3836L24.7002 21.3636L27.1002 23.7636V26C27.1002 26.3313 26.8315 26.6 26.5002 26.6ZM19.4793 17.6C19.4793 17.0361 19.9364 16.579 20.5002 16.579C21.064 16.579 21.5211 17.0361 21.5211 17.6C21.5211 18.1638 21.064 18.6209 20.5002 18.6209C19.9364 18.6209 19.4793 18.1638 19.4793 17.6ZM20.5002 15.499C19.3399 15.499 18.3993 16.4396 18.3993 17.6C18.3993 18.7603 19.3399 19.7009 20.5002 19.7009C21.6605 19.7009 22.6011 18.7603 22.6011 17.6C22.6011 16.4396 21.6605 15.499 20.5002 15.499Z" fill="#62636C"/>
</svg>
