<svg width="20" height="20" viewBox="0 0 20 20" fill="none" xmlns="http://www.w3.org/2000/svg">
<mask id="mask0_7667_6321" style="mask-type:alpha" maskUnits="userSpaceOnUse" x="0" y="0" width="20" height="20">
<rect width="20" height="20" fill="#D9D9D9"/>
</mask>
<g mask="url(#mask0_7667_6321)">
<path d="M5 3.57647C5 3.06998 5.20695 2.58424 5.57533 2.22609C5.9437 1.86795 6.44332 1.66675 6.96429 1.66675H13.0357C13.5567 1.66675 14.0563 1.86795 14.4247 2.22609C14.793 2.58424 15 3.06998 15 3.57647V16.4237C15 16.9302 14.793 17.4159 14.4247 17.7741C14.0563 18.1322 13.5567 18.3334 13.0357 18.3334H6.96429C6.44332 18.3334 5.9437 18.1322 5.57533 17.7741C5.20695 17.4159 5 16.9302 5 16.4237V3.57647ZM8.75 14.8612C8.60792 14.8612 8.47166 14.9161 8.37119 15.0137C8.27073 15.1114 8.21429 15.2439 8.21429 15.382C8.21429 15.5202 8.27073 15.6526 8.37119 15.7503C8.47166 15.848 8.60792 15.9029 8.75 15.9029H11.25C11.3921 15.9029 11.5283 15.848 11.6288 15.7503C11.7293 15.6526 11.7857 15.5202 11.7857 15.382C11.7857 15.2439 11.7293 15.1114 11.6288 15.0137C11.5283 14.9161 11.3921 14.8612 11.25 14.8612H8.75Z" fill="#1C2024"/>
</g>
</svg>
