<svg width="20" height="21" viewBox="0 0 20 21" fill="none" xmlns="http://www.w3.org/2000/svg">
<mask id="mask0_7739_6173" style="mask-type:alpha" maskUnits="userSpaceOnUse" x="0" y="0" width="20" height="21">
<rect y="0.5" width="20" height="20" fill="#D9D9D9"/>
</mask>
<g mask="url(#mask0_7739_6173)">
<path d="M10 2.5C11.0609 2.5 12.0783 2.92143 12.8284 3.67157C13.5786 4.42172 14 5.43913 14 6.5C14 7.56087 13.5786 8.57828 12.8284 9.32843C12.0783 10.0786 11.0609 10.5 10 10.5C8.93913 10.5 7.92172 10.0786 7.17157 9.32843C6.42143 8.57828 6 7.56087 6 6.5C6 5.43913 6.42143 4.42172 7.17157 3.67157C7.92172 2.92143 8.93913 2.5 10 2.5ZM10 18.5C10 18.5 18 18.5 18 16.5C18 14.1 14.1 11.5 10 11.5C5.9 11.5 2 14.1 2 16.5C2 18.5 10 18.5 10 18.5Z" fill="#1C2024"/>
</g>
</svg>
