<svg width="20" height="20" viewBox="0 0 20 20" fill="none" xmlns="http://www.w3.org/2000/svg">
<mask id="mask0_7667_6665" style="mask-type:alpha" maskUnits="userSpaceOnUse" x="0" y="0" width="20" height="20">
<rect width="20" height="20" fill="#D9D9D9"/>
</mask>
<g mask="url(#mask0_7667_6665)">
<path d="M16 4.16675H4C3.175 4.16675 2.5075 4.823 2.5075 5.62508L2.5 14.3751C2.5 15.1772 3.175 15.8334 4 15.8334H16C16.825 15.8334 17.5 15.1772 17.5 14.3751V5.62508C17.5 4.823 16.825 4.16675 16 4.16675ZM15.7 7.26571L10.3975 10.4886C10.1575 10.6345 9.8425 10.6345 9.6025 10.4886L4.3 7.26571C4.2248 7.22466 4.15894 7.16921 4.10642 7.1027C4.05389 7.0362 4.0158 6.96002 3.99443 6.87879C3.97307 6.79755 3.96888 6.71295 3.98212 6.6301C3.99536 6.54724 4.02575 6.46786 4.07146 6.39676C4.11717 6.32566 4.17724 6.26431 4.24804 6.21643C4.31885 6.16855 4.3989 6.13514 4.48337 6.11822C4.56784 6.10129 4.65496 6.1012 4.73947 6.11796C4.82397 6.13472 4.9041 6.16797 4.975 6.21571L10 9.27091L15.025 6.21571C15.0959 6.16797 15.176 6.13472 15.2605 6.11796C15.345 6.1012 15.4322 6.10129 15.5166 6.11822C15.6011 6.13514 15.6812 6.16855 15.752 6.21643C15.8228 6.26431 15.8828 6.32566 15.9285 6.39676C15.9742 6.46786 16.0046 6.54724 16.0179 6.6301C16.0311 6.71295 16.0269 6.79755 16.0056 6.87879C15.9842 6.96002 15.9461 7.0362 15.8936 7.1027C15.8411 7.16921 15.7752 7.22466 15.7 7.26571Z" fill="#1C2024"/>
</g>
</svg>
