<svg width="64" height="64" viewBox="0 0 64 64" fill="none" xmlns="http://www.w3.org/2000/svg">
<mask id="mask0_67_6444" style="mask-type:alpha" maskUnits="userSpaceOnUse" x="0" y="0" width="64" height="64">
<rect width="64" height="64" fill="#D9D9D9"/>
</mask>
<g mask="url(#mask0_67_6444)">
<path d="M3.3165 47.4359C2.76578 47.4359 2.29763 47.2432 1.91203 46.8575C1.52634 46.4719 1.3335 46.0037 1.3335 45.4531V44.5095C1.3335 42.8323 2.2315 41.4535 4.0275 40.373C5.82354 39.2925 8.16472 38.7523 11.051 38.7523C11.5186 38.7523 11.9963 38.7677 12.484 38.7984C12.9717 38.8292 13.4628 38.8839 13.9574 38.9625C13.5813 39.7192 13.2979 40.4877 13.107 41.268C12.9161 42.0484 12.8207 42.8479 12.8207 43.6667V47.4359H3.3165ZM19.4296 47.4359C18.8271 47.4359 18.3272 47.2362 17.9298 46.8366C17.5323 46.437 17.3336 45.9416 17.3336 45.3505V43.7693C17.3336 42.5209 17.684 41.3797 18.3849 40.3458C19.0857 39.3119 20.096 38.4104 21.4156 37.6411C22.7353 36.8719 24.2942 36.295 26.0925 35.9104C27.8908 35.5258 29.8566 35.3335 31.9899 35.3335C34.1643 35.3335 36.1506 35.5258 37.9488 35.9104C39.7471 36.295 41.3061 36.8719 42.6258 37.6411C43.9454 38.4104 44.9488 39.3119 45.636 40.3458C46.3232 41.3797 46.6668 42.5209 46.6668 43.7693V45.3505C46.6668 45.9416 46.467 46.437 46.0674 46.8366C45.6678 47.2362 45.1725 47.4359 44.5813 47.4359H19.4296ZM51.1796 47.4359V43.6704C51.1796 42.8026 51.0938 41.9807 50.9224 41.2049C50.7509 40.4291 50.4788 39.6827 50.1061 38.9658C50.6292 38.885 51.1271 38.8292 51.6 38.7984C52.0729 38.7677 52.5368 38.7523 52.9916 38.7523C55.8816 38.7523 58.2166 39.2836 59.9966 40.3462C61.7767 41.4089 62.6668 42.7966 62.6668 44.5095V45.4531C62.6668 46.0037 62.4739 46.4719 62.0883 46.8575C61.7027 47.2432 61.2345 47.4359 60.6838 47.4359H51.1796ZM20.7352 44.0856H43.2788V43.6052C43.2219 42.1613 42.1438 40.9801 40.0446 40.0616C37.9455 39.1431 35.264 38.6838 32.0002 38.6838C28.7477 38.6838 26.0691 39.1431 23.9642 40.0616C21.8594 40.9801 20.783 42.1705 20.7352 43.6326V44.0856ZM11.0084 36.4873C9.84854 36.4873 8.85639 36.0726 8.0319 35.243C7.20741 34.4135 6.79516 33.4151 6.79516 32.2481C6.79516 31.0788 7.20992 30.0843 8.03943 29.2643C8.86899 28.4444 9.86732 28.0345 11.0344 28.0345C12.2036 28.0345 13.2025 28.4444 14.031 29.2643C14.8594 30.0843 15.2736 31.0878 15.2736 32.2749C15.2736 33.4171 14.8641 34.4047 14.045 35.2377C13.2259 36.0708 12.2137 36.4873 11.0084 36.4873ZM52.9724 36.4873C51.8251 36.4873 50.8349 36.0699 50.0019 35.235C49.1688 34.4001 48.7523 33.407 48.7523 32.2557C48.7523 31.0814 49.1697 30.0843 50.0046 29.2643C50.8395 28.4444 51.8368 28.0345 52.9966 28.0345C54.1795 28.0345 55.181 28.4444 56.0009 29.2643C56.8209 30.0843 57.2308 31.0852 57.2308 32.2673C57.2308 33.4252 56.8219 34.4181 56.0042 35.2458C55.1863 36.0735 54.1757 36.4873 52.9724 36.4873ZM32.0092 33.3335C30.0887 33.3335 28.4532 32.6604 27.1028 31.3143C25.7524 29.9681 25.0772 28.3335 25.0772 26.4105C25.0772 24.449 25.7502 22.8048 27.0964 21.4779C28.4425 20.151 30.0771 19.4875 32.0002 19.4875C33.9617 19.4875 35.6059 20.1501 36.9328 21.4753C38.2597 22.8004 38.9232 24.4425 38.9232 26.4015C38.9232 28.322 38.2606 29.9575 36.9354 31.3079C35.6102 32.6583 33.9682 33.3335 32.0092 33.3335ZM32.0286 29.9832C33.0319 29.9832 33.8734 29.6367 34.5532 28.9437C35.2329 28.2507 35.5728 27.3968 35.5728 26.3821C35.5728 25.3788 35.2318 24.5373 34.5498 23.8575C33.8677 23.1777 33.023 22.8378 32.0158 22.8378C31.0185 22.8378 30.1711 23.1789 29.4736 23.8609C28.7762 24.543 28.4275 25.3877 28.4275 26.3949C28.4275 27.3922 28.774 28.2396 29.467 28.937C30.1601 29.6345 31.0139 29.9832 32.0286 29.9832Z" fill="#176DF3"/>
</g>
</svg>
