<svg width="40" height="40" viewBox="0 0 40 40" fill="none" xmlns="http://www.w3.org/2000/svg">
<path d="M0 8.88889C0 3.97969 3.97969 0 8.88889 0H31.1111C36.0203 0 40 3.97969 40 8.88889V31.1111C40 36.0203 36.0203 40 31.1111 40H8.88889C3.97969 40 0 36.0203 0 31.1111V8.88889Z" fill="#EAF3FF"/>
<rect width="22" height="22" transform="translate(9 9)" fill="white" fill-opacity="0.01"/>
<path fill-rule="evenodd" clip-rule="evenodd" d="M18.5333 10.4666C18.1283 10.4666 17.8 10.7949 17.8 11.1999C17.8 11.6049 18.1283 11.9332 18.5333 11.9332C19.4525 11.9332 19.9372 12.227 20.2283 12.6345C20.5545 13.0913 20.7333 13.8228 20.7333 14.8666V25.1332C20.7333 26.1769 20.5545 26.9085 20.2283 27.3653C19.9372 27.7728 19.4525 28.0666 18.5333 28.0666C18.1283 28.0666 17.8 28.3949 17.8 28.7999C17.8 29.2048 18.1283 29.5332 18.5333 29.5332C19.8142 29.5332 20.7961 29.0937 21.4217 28.2178C21.437 28.1965 21.452 28.1749 21.4667 28.1532C21.4814 28.1749 21.4964 28.1965 21.5116 28.2178C22.1372 29.0937 23.1192 29.5332 24.4 29.5332C24.8049 29.5332 25.1333 29.2048 25.1333 28.7999C25.1333 28.3949 24.8049 28.0666 24.4 28.0666C23.4808 28.0666 22.9961 27.7728 22.7051 27.3653C22.3788 26.9085 22.2 26.1769 22.2 25.1332V14.8666C22.2 13.8228 22.3788 13.0913 22.7051 12.6345C22.9961 12.227 23.4808 11.9332 24.4 11.9332C24.8049 11.9332 25.1333 11.6049 25.1333 11.1999C25.1333 10.7949 24.8049 10.4666 24.4 10.4666C23.1192 10.4666 22.1372 10.9061 21.5116 11.782C21.4964 11.8033 21.4814 11.8248 21.4667 11.8465C21.452 11.8248 21.437 11.8033 21.4217 11.782C20.7961 10.9061 19.8142 10.4666 18.5333 10.4666ZM29.5333 16.3332H25.1333V14.8666H29.5333C30.3434 14.8666 31 15.5232 31 16.3332V23.6666C31 24.4766 30.3434 25.1332 29.5333 25.1332H25.1333V23.6666H29.5333V16.3332ZM17.8 14.8666V16.3332H10.4667V23.6666H17.8V25.1332H10.4667C9.65665 25.1332 9 24.4766 9 23.6666V16.3332C9 15.5232 9.65665 14.8666 10.4667 14.8666H17.8Z" fill="#176DF3"/>
</svg>
