<svg width="40" height="40" viewBox="0 0 40 40" fill="none" xmlns="http://www.w3.org/2000/svg">
<path d="M0 8.88889C0 3.97969 3.97969 0 8.88889 0H31.1111C36.0203 0 40 3.97969 40 8.88889V31.1111C40 36.0203 36.0203 40 31.1111 40H8.88889C3.97969 40 0 36.0203 0 31.1111V8.88889Z" fill="#EAF3FF"/>
<rect width="22" height="22" transform="translate(9 9)" fill="white" fill-opacity="0.01"/>
<path fill-rule="evenodd" clip-rule="evenodd" d="M11.9333 16.3334H28.0667C28.8767 16.3334 29.5333 16.99 29.5333 17.8V22.2C29.5333 23.01 28.8767 23.6667 28.0667 23.6667H11.9333C11.1233 23.6667 10.4667 23.01 10.4667 22.2V17.8C10.4667 16.99 11.1233 16.3334 11.9333 16.3334ZM9 17.8C9 16.18 10.3133 14.8667 11.9333 14.8667H28.0667C29.6867 14.8667 31 16.18 31 17.8V22.2C31 23.8201 29.6867 25.1334 28.0667 25.1334H11.9333C10.3133 25.1334 9 23.8201 9 22.2V17.8ZM15.6 18.9C14.9925 18.9 14.5 19.3925 14.5 20C14.5 20.6075 14.9925 21.1 15.6 21.1C16.2075 21.1 16.7 20.6075 16.7 20C16.7 19.3925 16.2075 18.9 15.6 18.9ZM18.9 20C18.9 19.3925 19.3925 18.9 20 18.9C20.6075 18.9 21.1 19.3925 21.1 20C21.1 20.6075 20.6075 21.1 20 21.1C19.3925 21.1 18.9 20.6075 18.9 20ZM24.4 18.9C23.7925 18.9 23.3 19.3925 23.3 20C23.3 20.6075 23.7925 21.1 24.4 21.1C25.0075 21.1 25.5 20.6075 25.5 20C25.5 19.3925 25.0075 18.9 24.4 18.9Z" fill="#176DF3"/>
</svg>
