<svg width="11" height="11" viewBox="0 0 11 11" fill="none" xmlns="http://www.w3.org/2000/svg">
<path fill-rule="evenodd" clip-rule="evenodd" d="M10.4779 1.1779C10.7474 0.908439 10.7474 0.471555 10.4779 0.202095C10.2085 -0.067365 9.77154 -0.067365 9.50214 0.202095L5.34 4.3642L1.17791 0.202095C0.908439 -0.067365 0.471555 -0.067365 0.202095 0.202095C-0.067365 0.471555 -0.067365 0.908439 0.202095 1.1779L4.3642 5.34L0.202095 9.50209C-0.067365 9.77161 -0.067365 10.2084 0.202095 10.4779C0.471555 10.7473 0.908439 10.7473 1.17791 10.4779L5.34 6.31581L9.50214 10.4779C9.77154 10.7473 10.2085 10.7473 10.4779 10.4779C10.7474 10.2084 10.7474 9.77161 10.4779 9.50209L6.31581 5.34L10.4779 1.1779Z" fill="#62636C"/>
</svg>
