<svg width="16" height="16" viewBox="0 0 16 16" fill="none" xmlns="http://www.w3.org/2000/svg">
<path fill-rule="evenodd" clip-rule="evenodd" d="M1.8 0H13.8C14.7941 0 15.6 0.805884 15.6 1.8V13.8C15.6 14.7941 14.7941 15.6 13.8 15.6H1.8C0.805884 15.6 0 14.7941 0 13.8V1.8C0 0.805884 0.805884 0 1.8 0ZM1.8 1.2C1.46863 1.2 1.2 1.46863 1.2 1.8V8.83632L3.21816 6.81816C3.32171 6.71461 3.46286 6.65756 3.60929 6.66008C3.7557 6.66259 3.89482 6.72446 3.99474 6.83152L8.24826 11.3881L11.6182 8.01816C11.829 7.80728 12.171 7.80728 12.3818 8.01816L14.4 10.0363V1.8C14.4 1.46863 14.1313 1.2 13.8 1.2H1.8ZM1.2 13.8V10.3637L3.58664 7.97704L7.83732 12.5305L9.52936 14.4H1.8C1.46863 14.4 1.2 14.1313 1.2 13.8ZM13.8 14.4H10.986L8.98003 12.1836L12 9.16368L14.4 11.5637V13.8C14.4 14.1313 14.1313 14.4 13.8 14.4ZM6.77906 5.4C6.77906 4.83616 7.23616 4.37906 7.8 4.37906C8.36384 4.37906 8.82094 4.83616 8.82094 5.4C8.82094 5.96384 8.36384 6.42094 7.8 6.42094C7.23616 6.42094 6.77906 5.96384 6.77906 5.4ZM7.8 3.29906C6.63968 3.29906 5.69906 4.23968 5.69906 5.4C5.69906 6.56032 6.63968 7.50094 7.8 7.50094C8.96032 7.50094 9.90094 6.56032 9.90094 5.4C9.90094 4.23968 8.96032 3.29906 7.8 3.29906Z" fill="#62636C"/>
</svg>
