<svg width="48" height="48" viewBox="0 0 48 48" fill="none" xmlns="http://www.w3.org/2000/svg">
<path d="M41.0017 23.976C41.001 23.7326 40.9953 23.4893 40.9844 23.2462V9.44772L37.181 13.2625C34.0679 9.44093 29.3323 7 24.0278 7C18.5078 7 13.6037 9.64252 10.5039 13.7352L16.7383 20.0536C17.3488 18.9225 18.2134 17.9495 19.2638 17.2117C20.3523 16.3599 21.8944 15.6632 24.0278 15.6632C24.2856 15.6632 24.4846 15.6936 24.6306 15.7503C27.274 15.9597 29.5652 17.4226 30.9141 19.5461L26.5009 23.972C32.0906 23.95 38.4052 23.9372 41.0013 23.975" fill="#1C3AA9"/>
<path d="M23.9265 7.00049C23.6838 7.00117 23.4412 7.00697 23.1988 7.01787H9.44058L13.2442 10.8326C9.43381 13.9546 7 18.7042 7 24.0241C7 29.5604 9.63482 34.4789 13.7155 37.5879L20.0155 31.3353C18.8877 30.723 17.9175 29.8557 17.1819 28.8022C16.3326 27.7107 15.638 26.1639 15.638 24.0243C15.638 23.7659 15.6682 23.5663 15.7248 23.4197C15.9336 20.7687 17.3922 18.4709 19.5095 17.118L23.9225 21.544C23.9006 15.9376 23.8877 9.60465 23.9255 7.00089" fill="#4285F4"/>
<path d="M7 24.0239C7.00066 24.2683 7.00644 24.5116 7.01733 24.7538V38.5522L10.8209 34.7375C13.9339 38.559 18.6696 40.9999 23.9739 40.9999C29.4942 40.9999 34.3982 38.3574 37.4982 34.2648L31.2638 27.9464C30.6533 29.0775 29.7886 30.0505 28.7381 30.7883C27.6498 31.64 26.1075 32.3367 23.9741 32.3367C23.7165 32.3367 23.5175 32.3063 23.3713 32.2494C20.7281 32.0402 18.4369 30.5771 17.088 28.4538L21.5011 24.0277C15.9111 24.0497 9.59657 24.0627 7.0004 24.0249" fill="#ABABAB"/>
</svg>
