<svg width="33" height="33" viewBox="0 0 33 33" fill="none" xmlns="http://www.w3.org/2000/svg">
<path d="M16.046 4.875C16.3303 5.13345 16.6153 5.39127 16.9003 5.64908C17.534 6.2222 18.1679 6.79555 18.7928 7.3758C22.8479 11.1428 26.281 15.381 28.8638 20.2581C28.9956 20.5082 29.1154 20.764 29.2353 21.0201C29.2952 21.1479 29.355 21.2759 29.4165 21.4032L29.2171 21.511L29.0674 21.294C28.9377 21.1063 28.8081 20.9187 28.6812 20.7294L28.4092 20.3257C26.5286 17.5328 24.6451 14.7356 22.0585 12.5002C21.286 11.8331 20.407 11.2407 19.4875 10.7926C17.6162 9.87826 15.9513 10.2433 14.523 11.7468C13.1657 13.1756 12.4608 14.9495 11.8235 16.755C11.7414 16.9875 11.6545 17.218 11.5676 17.4486C11.5169 17.5833 11.466 17.7184 11.4162 17.8535L11.0984 17.7507C11.282 17.0936 11.4526 16.4319 11.6233 15.7702C12.0103 14.2694 12.3973 12.7685 12.9358 11.322C13.5104 9.78141 14.2316 8.29502 14.9528 6.80861C15.2648 6.16556 15.5768 5.52245 15.877 4.875H16.046Z" fill="#000001"/>
<path d="M17.3274 23.4177C14.3271 24.8697 7.06714 26.3698 3.62393 25.9849C3.06105 22.9531 8.58336 8.74314 11.2963 6.59082C11.2283 6.7483 11.1716 6.88336 11.1214 7.00304C11.0245 7.2339 10.9516 7.40767 10.867 7.57488L10.7442 7.8171C9.34422 10.5774 7.94201 13.3421 7.22434 16.37C6.97755 17.4104 6.81189 18.4925 6.80345 19.5578C6.78485 22.0885 8.32305 23.8093 10.894 23.9172C12.1323 23.9692 13.3796 23.8358 14.6268 23.7025C15.1689 23.6445 15.711 23.5865 16.2524 23.5438C16.4495 23.5283 16.6452 23.503 16.9004 23.47C17.0258 23.4537 17.1658 23.4357 17.3274 23.416V23.4177Z" fill="#000001"/>
<path d="M8.79636 29.0032C7.9757 29.0673 7.15509 29.1312 6.33674 29.2076H6.33505C13.8942 29.9428 21.1524 28.6832 28.3128 26.1028C25.9784 21.8944 22.8343 18.5689 19.1765 15.6797C19.2239 15.8632 19.3307 15.9974 19.4363 16.1301C19.4663 16.1678 19.4963 16.2054 19.5247 16.2439C19.8382 16.6705 20.1672 17.0892 20.4961 17.5078C21.2513 18.4687 22.0066 19.4295 22.5741 20.4871C24.0109 23.1672 23.2316 25.4854 20.4189 26.7101C18.5696 27.5167 16.5497 28.0659 14.5501 28.3928C12.6509 28.7024 10.7235 28.8527 8.79636 29.0032Z" fill="#000001"/>
</svg>
