<svg width="64" height="64" viewBox="0 0 64 64" fill="none" xmlns="http://www.w3.org/2000/svg">
<g clip-path="url(#clip0_9127_97285)">
<circle cx="32" cy="32" r="26" fill="#0B63E9"/>
<path d="M27.9055 35.585L43.2469 20.2437M27.9055 35.585L32.7869 45.3477C32.8481 45.4813 32.9463 45.5944 33.0699 45.6737C33.1935 45.7531 33.3373 45.7952 33.4842 45.7952C33.6311 45.7952 33.7749 45.7531 33.8985 45.6737C34.0221 45.5944 34.1203 45.4813 34.1815 45.3477L43.2469 20.2437M27.9055 35.585L18.1428 30.7037C18.0093 30.6425 17.8961 30.5443 17.8168 30.4206C17.7375 30.297 17.6953 30.1532 17.6953 30.0063C17.6953 29.8595 17.7375 29.7157 17.8168 29.5921C17.8961 29.4684 18.0093 29.3702 18.1428 29.309L43.2469 20.2437" stroke="white" stroke-width="3" stroke-linecap="round" stroke-linejoin="round"/>
</g>
<defs>
<clipPath id="clip0_9127_97285">
<rect width="52" height="52" fill="white" transform="translate(6 6)"/>
</clipPath>
</defs>
</svg>
