<svg width="64" height="64" viewBox="0 0 64 64" fill="none" xmlns="http://www.w3.org/2000/svg">
<g clip-path="url(#clip0_9127_97289)">
<circle cx="32" cy="32" r="26" fill="#0B63E9"/>
<path d="M36.6101 45.38H23.1872C22.0005 45.38 20.8625 44.9086 20.0234 44.0695C19.1843 43.2304 18.7129 42.0924 18.7129 40.9057V39.4143H33.6272V42.3971C33.6272 43.1883 33.9415 43.947 34.5009 44.5064C35.0603 45.0658 35.819 45.38 36.6101 45.38ZM36.6101 45.38C37.4012 45.38 38.1599 45.0658 38.7193 44.5064C39.2787 43.947 39.593 43.1883 39.593 42.3971V21.5171C39.593 20.9271 39.7679 20.3504 40.0957 19.8599C40.4234 19.3693 40.8893 18.987 41.4344 18.7612C41.9794 18.5355 42.5792 18.4764 43.1578 18.5915C43.7364 18.7066 44.2679 18.9907 44.6851 19.4078C45.1022 19.825 45.3863 20.3565 45.5014 20.9351C45.6165 21.5137 45.5574 22.1135 45.3317 22.6585C45.1059 23.2036 44.7236 23.6695 44.233 23.9972C43.7425 24.325 43.1658 24.4999 42.5759 24.4999H39.593M42.5759 18.5342H26.1701C24.9834 18.5342 23.8453 19.0056 23.0063 19.8447C22.1672 20.6838 21.6958 21.8218 21.6958 23.0085V39.4143M27.6615 24.4999H33.6272M27.6615 30.4657H33.6272" stroke="white" stroke-width="3" stroke-linecap="round" stroke-linejoin="round"/>
</g>
<defs>
<clipPath id="clip0_9127_97289">
<rect width="52" height="52" fill="white" transform="translate(6 6)"/>
</clipPath>
</defs>
</svg>
