<svg width="32" height="32" viewBox="0 0 32 32" fill="none" xmlns="http://www.w3.org/2000/svg">
<g clip-path="url(#clip0_1002_8187)">
<path d="M12 23.077C13.6994 23.077 15.0769 21.6994 15.0769 20C15.0769 18.3006 13.6994 16.9231 12 16.9231C10.3006 16.9231 8.92304 18.3006 8.92304 20C8.92304 21.6994 10.3006 23.077 12 23.077ZM12 15.077C13.6994 15.077 15.0769 13.6994 15.0769 12C15.0769 10.3006 13.6994 8.92304 12 8.92304C10.3006 8.92304 8.92304 10.3006 8.92304 12C8.92304 13.6994 10.3006 15.077 12 15.077ZM20 23.077C21.6994 23.077 23.077 21.6994 23.077 20C23.077 18.3006 21.6994 16.9231 20 16.9231C18.3006 16.9231 16.923 18.3006 16.923 20C16.923 21.6994 18.3006 23.077 20 23.077ZM20 15.077C21.6994 15.077 23.077 13.6994 23.077 12C23.077 10.3006 21.6994 8.92304 20 8.92304C18.3006 8.92304 16.923 10.3006 16.923 12C16.923 13.6994 18.3006 15.077 20 15.077ZM16 0C24.6666 0 32 7.33336 32 16C32 24.6666 24.6666 32 16 32C7.33334 32 0 24.6666 0 16C0 7.33344 7.33338 0 16 0ZM16 4.30769C9.56096 4.30769 4.3077 9.37904 4.3077 15.7852C4.3077 22.1914 9.56096 27.6923 16 27.6923C22.439 27.6923 27.6923 22.1914 27.6923 15.7852C27.6923 9.37904 22.439 4.30769 16 4.30769Z" fill="#F22F46"/>
</g>
<defs>
<clipPath id="clip0_1002_8187">
<rect width="32" height="32" fill="white"/>
</clipPath>
</defs>
</svg>
