<svg id="Layer_1" data-name="Layer 1" xmlns="http://www.w3.org/2000/svg" viewBox="0 0 32 32"><defs><style>.cls-1{fill-rule:evenodd;}</style></defs><path class="cls-1" d="M10.8,20.84A3.55,3.55,0,0,0,7.23,24.4v2.41a1.25,1.25,0,0,1-2.5,0V24.4a6,6,0,0,1,6.07-6.06h2.4a1.25,1.25,0,0,1,0,2.5Z"/><path class="cls-1" d="M13.2,3.88A6.07,6.07,0,1,0,19.27,10,6.06,6.06,0,0,0,13.2,3.88Zm0,9.64A3.57,3.57,0,1,1,16.77,10,3.56,3.56,0,0,1,13.2,13.52Z"/><path class="cls-1" d="M29.87,16.5l-.74-.71A1.25,1.25,0,0,0,27.3,14.1l-.83.79h0L24,17.29h0l-2.72,2.62A4.72,4.72,0,0,0,19,19.35a4.45,4.45,0,1,0,4.58,4.45A4.35,4.35,0,0,0,23,21.67l1.8-1.74.8.77a1.25,1.25,0,1,0,1.74-1.8l-.73-.7.69-.67.8.77a1.25,1.25,0,1,0,1.74-1.8ZM19,25.75a2,2,0,1,1,2.08-1.95A2,2,0,0,1,19,25.75Z"/></svg>