<svg id="Layer_1" data-name="Layer 1" xmlns="http://www.w3.org/2000/svg" viewBox="0 0 28 28"><defs><style>.cls-1{fill-rule:evenodd;}</style></defs><path class="cls-1" d="M16.14,14.5A7.19,7.19,0,0,0,19.2,8.6a7.06,7.06,0,1,0-14.11,0,7.17,7.17,0,0,0,3.07,5.9A11.24,11.24,0,0,0,1.05,25h2a9.17,9.17,0,0,1,9.1-9.25A9,9,0,0,1,18.05,18l1.31-1.51A10.88,10.88,0,0,0,16.14,14.5Zm-4-.75A5.1,5.1,0,0,1,7.09,8.6a5.06,5.06,0,1,1,10.11,0A5.1,5.1,0,0,1,12.15,13.75Z"/><path class="cls-1" d="M25,16.23a3.1,3.1,0,0,0-4.43.14,3.21,3.21,0,0,0-.47,3.68L17.54,22.8l-1.83,2,1.44,1.38,1.16-1.24,1,1,1.36-1.46-1-1,1.86-2a3.09,3.09,0,0,0,3.6-.71A3.2,3.2,0,0,0,25,16.23Zm-1.31,3.11a1.13,1.13,0,0,1-1.62.06,1.18,1.18,0,0,1,0-1.65,1.12,1.12,0,0,1,1.62-.05A1.16,1.16,0,0,1,23.68,19.34Z"/></svg>