<svg width="24" height="24" viewBox="0 0 24 24" fill="none" xmlns="http://www.w3.org/2000/svg">
<g clip-path="url(#clip0_43_1569)">
<path d="M12 9.81812V14.4654H18.4582C18.1746 15.9599 17.3236 17.2254 16.0472 18.0763L19.9417 21.0982C22.2108 19.0037 23.5199 15.9273 23.5199 12.2728C23.5199 11.4219 23.4436 10.6036 23.3017 9.81825L12 9.81812Z" fill="#E7E7E9"/>
<path d="M5.27461 14.284L4.39625 14.9564L1.28711 17.3782C3.26165 21.2945 7.30862 24 11.9995 24C15.2394 24 17.9557 22.9309 19.9412 21.0982L16.0467 18.0764C14.9776 18.7963 13.614 19.2328 11.9995 19.2328C8.87951 19.2328 6.22868 17.1273 5.27952 14.2909L5.27461 14.284Z" fill="#E7E7E9"/>
<path d="M1.28718 6.62183C0.469042 8.23631 0 10.0581 0 11.9999C0 13.9417 0.469042 15.7636 1.28718 17.378C1.28718 17.3889 5.27997 14.2799 5.27997 14.2799C5.03998 13.5599 4.89812 12.7963 4.89812 11.9998C4.89812 11.2033 5.03998 10.4398 5.27997 9.71976L1.28718 6.62183Z" fill="#E7E7E9"/>
<path d="M11.9997 4.77818C13.767 4.77818 15.3379 5.38907 16.5925 6.56727L20.0288 3.13095C17.9452 1.18917 15.2398 0 11.9997 0C7.30887 0 3.26165 2.69454 1.28711 6.62183L5.27978 9.72001C6.22882 6.88362 8.87976 4.77818 11.9997 4.77818Z" fill="#E7E7E9"/>
</g>
<defs>
<clipPath id="clip0_43_1569">
<rect width="24" height="24" fill="white"/>
</clipPath>
</defs>
</svg>
