<svg width="24" height="24" viewBox="0 0 24 24" fill="none" xmlns="http://www.w3.org/2000/svg">
<mask id="mask0_130_27166" style="mask-type:alpha" maskUnits="userSpaceOnUse" x="0" y="0" width="24" height="24">
<rect width="24" height="24" fill="#D9D9D9"/>
</mask>
<g mask="url(#mask0_130_27166)">
<path d="M12 3C10.8181 3 9.64778 3.23857 8.55585 3.70209C7.46392 4.16561 6.47177 4.84501 5.63604 5.70148C3.94821 7.43121 3 9.77723 3 12.2234C3 16.3002 5.583 19.759 9.156 20.9857C9.606 21.0595 9.75 20.7736 9.75 20.5245V18.9658C7.257 19.5192 6.726 17.7298 6.726 17.7298C6.312 16.6599 5.727 16.374 5.727 16.374C4.908 15.8021 5.79 15.8206 5.79 15.8206C6.69 15.8851 7.167 16.7706 7.167 16.7706C7.95 18.1726 9.273 17.7575 9.786 17.5361C9.867 16.9366 10.101 16.5308 10.353 16.3002C8.355 16.0696 6.258 15.2764 6.258 11.7623C6.258 10.7385 6.6 9.91758 7.185 9.26272C7.095 9.03213 6.78 8.07289 7.275 6.82773C7.275 6.82773 8.031 6.5787 9.75 7.76852C10.461 7.5656 11.235 7.46415 12 7.46415C12.765 7.46415 13.539 7.5656 14.25 7.76852C15.969 6.5787 16.725 6.82773 16.725 6.82773C17.22 8.07289 16.905 9.03213 16.815 9.26272C17.4 9.91758 17.742 10.7385 17.742 11.7623C17.742 15.2856 15.636 16.0604 13.629 16.291C13.953 16.5769 14.25 17.1395 14.25 17.9973V20.5245C14.25 20.7736 14.394 21.0687 14.853 20.9857C18.426 19.7498 21 16.3002 21 12.2234C21 11.0122 20.7672 9.81282 20.3149 8.69378C19.8626 7.57474 19.1997 6.55796 18.364 5.70148C17.5282 4.84501 16.5361 4.16561 15.4442 3.70209C14.3522 3.23857 13.1819 3 12 3Z" fill="black"/>
</g>
</svg>
