<svg width="24" height="24" viewBox="0 0 24 24" fill="none" xmlns="http://www.w3.org/2000/svg">
<mask id="mask0_130_27138" style="mask-type:alpha" maskUnits="userSpaceOnUse" x="0" y="0" width="24" height="24">
<rect width="24" height="24" fill="#D9D9D9"/>
</mask>
<g mask="url(#mask0_130_27138)">
<path d="M4.86857 8.408C5.54776 7.08259 6.58969 5.96841 7.8779 5.18998C9.16612 4.41154 10.6498 3.99953 12.1633 4C14.3633 4 16.2114 4.7928 17.6245 6.084L15.2841 8.3784C14.4376 7.5856 13.3616 7.1816 12.1633 7.1816C10.0367 7.1816 8.23674 8.5896 7.59592 10.48C7.43265 10.96 7.33959 11.472 7.33959 12C7.33959 12.528 7.43265 13.04 7.59592 13.52C8.23755 15.4112 10.0367 16.8184 12.1633 16.8184C13.2612 16.8184 14.1959 16.5344 14.9273 16.0544C15.3514 15.7808 15.7144 15.4258 15.9945 15.0108C16.2745 14.5958 16.4658 14.1295 16.5567 13.64H12.1633V10.5456H19.8514C19.9478 11.0688 20 11.6144 20 12.1816C20 14.6184 19.1102 16.6696 17.5657 18.0616C16.2155 19.284 14.3673 20 12.1633 20C11.0911 20.0004 10.0294 19.7938 9.03881 19.3919C8.0482 18.99 7.14812 18.4007 6.39001 17.6578C5.63189 16.9148 5.03061 16.0328 4.62052 15.062C4.21043 14.0912 3.99957 13.0507 4 12C4 10.7088 4.3151 9.488 4.86857 8.408Z" fill="black"/>
</g>
</svg>
