<svg width="24" height="24" viewBox="0 0 24 24" fill="none" xmlns="http://www.w3.org/2000/svg">
<mask id="mask0_130_27175" style="mask-type:alpha" maskUnits="userSpaceOnUse" x="0" y="0" width="24" height="24">
<rect width="24" height="24" fill="#D9D9D9"/>
</mask>
<g mask="url(#mask0_130_27175)">
<path d="M15.4221 8.56889C15.7688 8.56889 16.1065 8.59556 16.4354 8.64C15.831 6 13.0577 4 9.72433 4C5.94655 4 2.87988 6.56 2.87988 9.71556C2.87988 11.5378 3.9021 13.1467 5.49322 14.1956L4.59544 16L7.04877 14.9422C7.57322 15.1289 8.12433 15.28 8.71099 15.36C8.63099 15.0133 8.58655 14.6578 8.58655 14.2844C8.57766 11.1378 11.6443 8.56889 15.4221 8.56889ZM11.9999 6.56889C12.1119 6.56889 12.2229 6.59096 12.3264 6.63384C12.43 6.67673 12.524 6.73958 12.6033 6.81882C12.6825 6.89806 12.7454 6.99213 12.7883 7.09567C12.8311 7.1992 12.8532 7.31016 12.8532 7.42222C12.8532 7.53428 12.8311 7.64525 12.7883 7.74878C12.7454 7.85231 12.6825 7.94638 12.6033 8.02562C12.524 8.10486 12.43 8.16772 12.3264 8.2106C12.2229 8.25348 12.1119 8.27556 11.9999 8.27556C11.7736 8.27556 11.5565 8.18565 11.3965 8.02562C11.2365 7.86559 11.1465 7.64854 11.1465 7.42222C11.1465 7.1959 11.2365 6.97886 11.3965 6.81882C11.5565 6.65879 11.7736 6.56889 11.9999 6.56889ZM7.43988 8.28444C7.21356 8.28444 6.99652 8.19454 6.83648 8.03451C6.67645 7.87448 6.58655 7.65743 6.58655 7.43111C6.58655 7.20479 6.67645 6.98774 6.83648 6.82771C6.99652 6.66768 7.21356 6.57778 7.43988 6.57778C7.6662 6.57778 7.88325 6.66768 8.04328 6.82771C8.20331 6.98774 8.29322 7.20479 8.29322 7.43111C8.29322 7.65743 8.20331 7.87448 8.04328 8.03451C7.88325 8.19454 7.6662 8.28444 7.43988 8.28444Z" fill="black"/>
<path d="M21.1199 14.2845C21.1199 11.76 18.5688 9.71558 15.4221 9.71558C12.2755 9.71558 9.72437 11.76 9.72437 14.2845C9.72437 16.8089 12.2755 18.8534 15.4221 18.8534C15.9377 18.8534 16.4355 18.7822 16.9066 18.6756L19.9821 20L18.9155 17.8667C20.2488 17.0311 21.1199 15.7511 21.1199 14.2845ZM13.7066 14C13.5378 14 13.3728 13.95 13.2325 13.8562C13.0922 13.7624 12.9828 13.6292 12.9182 13.4732C12.8536 13.3173 12.8367 13.1457 12.8697 12.9802C12.9026 12.8147 12.9838 12.6626 13.1032 12.5433C13.2225 12.4239 13.3746 12.3427 13.5401 12.3097C13.7056 12.2768 13.8772 12.2937 14.0331 12.3583C14.1891 12.4229 14.3223 12.5323 14.4161 12.6726C14.5099 12.8129 14.5599 12.9779 14.5599 13.1467C14.5688 13.6178 14.1777 14 13.7066 14ZM17.1288 14C16.9025 14 16.6854 13.9101 16.5254 13.7501C16.3654 13.5901 16.2755 13.373 16.2755 13.1467C16.2755 12.9204 16.3654 12.7033 16.5254 12.5433C16.6854 12.3833 16.9025 12.2934 17.1288 12.2934C17.3551 12.2934 17.5722 12.3833 17.7322 12.5433C17.8922 12.7033 17.9821 12.9204 17.9821 13.1467C17.9821 13.373 17.8922 13.5901 17.7322 13.7501C17.5722 13.9101 17.3551 14 17.1288 14Z" fill="black"/>
</g>
</svg>
