<svg width="24" height="24" viewBox="0 0 24 24" fill="none" xmlns="http://www.w3.org/2000/svg">
<mask id="mask0_130_27145" style="mask-type:alpha" maskUnits="userSpaceOnUse" x="0" y="0" width="24" height="24">
<rect width="24" height="24" fill="#D9D9D9"/>
</mask>
<g mask="url(#mask0_130_27145)">
<path d="M17.0502 20.28C16.0702 21.23 15.0002 21.08 13.9702 20.63C12.8802 20.17 11.8802 20.15 10.7302 20.63C9.29016 21.25 8.53016 21.07 7.67016 20.28C2.79016 15.25 3.51016 7.59 9.05016 7.31C10.4002 7.38 11.3402 8.05 12.1302 8.11C13.3102 7.87 14.4402 7.18 15.7002 7.27C17.2102 7.39 18.3502 7.99 19.1002 9.07C15.9802 10.94 16.7202 15.05 19.5802 16.2C19.0102 17.7 18.2702 19.19 17.0402 20.29L17.0502 20.28ZM12.0302 7.25C11.8802 5.02 13.6902 3.18 15.7702 3C16.0602 5.58 13.4302 7.5 12.0302 7.25Z" fill="black"/>
</g>
</svg>
