<svg width="24" height="24" viewBox="0 0 24 24" fill="none" xmlns="http://www.w3.org/2000/svg">
<mask id="mask0_130_27169" style="mask-type:alpha" maskUnits="userSpaceOnUse" x="0" y="0" width="24" height="24">
<rect width="24" height="24" fill="#D9D9D9"/>
</mask>
<g mask="url(#mask0_130_27169)">
<path d="M18.2222 4C18.6937 4 19.1459 4.1873 19.4793 4.5207C19.8127 4.8541 20 5.30628 20 5.77778V18.2222C20 18.6937 19.8127 19.1459 19.4793 19.4793C19.1459 19.8127 18.6937 20 18.2222 20H5.77778C5.30628 20 4.8541 19.8127 4.5207 19.4793C4.1873 19.1459 4 18.6937 4 18.2222V5.77778C4 5.30628 4.1873 4.8541 4.5207 4.5207C4.8541 4.1873 5.30628 4 5.77778 4H18.2222ZM17.7778 17.7778V13.0667C17.7778 12.2981 17.4725 11.5611 16.929 11.0176C16.3856 10.4742 15.6485 10.1689 14.88 10.1689C14.1244 10.1689 13.2444 10.6311 12.8178 11.3244V10.3378H10.3378V17.7778H12.8178V13.3956C12.8178 12.7111 13.3689 12.1511 14.0533 12.1511C14.3834 12.1511 14.6999 12.2822 14.9333 12.5156C15.1667 12.749 15.2978 13.0655 15.2978 13.3956V17.7778H17.7778ZM7.44889 8.94222C7.84495 8.94222 8.22478 8.78489 8.50484 8.50484C8.78489 8.22478 8.94222 7.84495 8.94222 7.44889C8.94222 6.62222 8.27556 5.94667 7.44889 5.94667C7.05047 5.94667 6.66838 6.10494 6.38666 6.38666C6.10494 6.66838 5.94667 7.05047 5.94667 7.44889C5.94667 8.27556 6.62222 8.94222 7.44889 8.94222ZM8.68444 17.7778V10.3378H6.22222V17.7778H8.68444Z" fill="black"/>
</g>
</svg>
