<?xml version="1.0" encoding="UTF-8"?>
<!-- Created with Inkscape (http://www.inkscape.org/) -->
<svg width="3.4727mm" height="3.4727mm" version="1.1" viewBox="0 0 3.4727 3.4727" xmlns="http://www.w3.org/2000/svg" xmlns:cc="http://creativecommons.org/ns#" xmlns:dc="http://purl.org/dc/elements/1.1/" xmlns:rdf="http://www.w3.org/1999/02/22-rdf-syntax-ns#">
 <metadata>
  <rdf:RDF>
   <cc:Work rdf:about="">
    <dc:format>image/svg+xml</dc:format>
    <dc:type rdf:resource="http://purl.org/dc/dcmitype/StillImage"/>
    <dc:title/>
   </cc:Work>
  </rdf:RDF>
 </metadata>
 <g transform="translate(-125.4 -143.76)">
  <path d="m127.13 147.23c-0.16034 0-0.31459-0.0205-0.46302-0.0615-0.14711-0.041-0.28496-0.0989-0.41407-0.17365-0.12912-0.076-0.24659-0.1664-0.35269-0.2713-0.10478-0.1061-0.19526-0.22366-0.2712-0.35268-0.0749-0.12902-0.13282-0.26709-0.17383-0.41419-0.041-0.14831-0.0614-0.30265-0.0614-0.46302s0.0204-0.31411 0.0614-0.46121c0.041-0.14832 0.0989-0.28698 0.17383-0.416 0.0759-0.12902 0.16642-0.24598 0.2712-0.35088 0.1061-0.10611 0.22357-0.19654 0.35269-0.2713 0.12911-0.076 0.26696-0.13445 0.41407-0.17545 0.14843-0.041 0.30268-0.0615 0.46302-0.0615 0.1606 0 0.31433 0.0205 0.46143 0.0615 0.14817 0.041 0.28681 0.0995 0.41593 0.17545 0.12912 0.0748 0.24606 0.16519 0.35084 0.2713 0.10609 0.1049 0.19658 0.22186 0.27119 0.35088 0.0762 0.12902 0.13468 0.26768 0.17569 0.416 0.0407 0.1471 0.0614 0.30084 0.0614 0.46121s-0.0206 0.31471-0.0614 0.46302c-0.041 0.1471-0.0995 0.28517-0.17569 0.41419-0.0746 0.12902-0.1651 0.24658-0.27119 0.35268-0.10478 0.1049-0.22172 0.19534-0.35084 0.2713-0.12912 0.0748-0.26776 0.13264-0.41593 0.17365-0.1471 0.041-0.30083 0.0615-0.46143 0.0615zm0-3.2412c-0.13864 0-0.27173 0.0181-0.39952 0.0543s-0.24791 0.0868-0.3601 0.15193c-0.11086 0.0651-0.21219 0.14349-0.30374 0.23513-0.0915 0.0916-0.17013 0.19352-0.23521 0.30566-0.0651 0.11093-0.11563 0.23091-0.15187 0.35993-0.0362 0.12781-0.0542 0.26045-0.0542 0.39791s0.018 0.2707 0.0542 0.39971c0.0362 0.12782 0.0868 0.24779 0.15187 0.35993 0.0651 0.11093 0.14366 0.21223 0.23521 0.30385 0.0915 0.0916 0.19288 0.17002 0.30374 0.23514 0.11219 0.0651 0.23231 0.11575 0.3601 0.15192 0.12779 0.0362 0.26088 0.0543 0.39952 0.0543 0.13758 0 0.27014-0.0181 0.39793-0.0543 0.12912-0.0362 0.24898-0.0868 0.3601-0.15192 0.11219-0.0651 0.21405-0.14349 0.3056-0.23514 0.0915-0.0916 0.17012-0.19292 0.23521-0.30385 0.0651-0.11214 0.11562-0.23211 0.15187-0.35993 0.0362-0.12781 0.0542-0.26105 0.0542-0.39971 0-0.13746-0.018-0.2701-0.0542-0.39791-0.0362-0.12902-0.0868-0.249-0.15187-0.35993-0.0651-0.11214-0.14367-0.21402-0.23521-0.30566-0.0915-0.0916-0.19341-0.17002-0.3056-0.23513-0.11112-0.0651-0.23098-0.11576-0.3601-0.15193-0.12779-0.0362-0.26035-0.0543-0.39793-0.0543zm-0.11562 1.1576h0.23151v1.1576h-0.23151zm0-0.46302h0.23151v0.23151h-0.23151z" fill="#176df3" stroke-width=".26458"/>
 </g>
</svg>
