<svg width="24" height="24" viewBox="0 0 24 24" fill="none" xmlns="http://www.w3.org/2000/svg">
<path fill-rule="evenodd" clip-rule="evenodd" d="M21.5023 19.3644C23.0262 18.2512 23.9999 16.6045 23.9999 14.775C23.9999 11.4215 20.7636 8.70355 16.7709 8.70355C12.7787 8.70355 9.54199 11.4215 9.54199 14.775C9.54199 18.1284 12.7787 20.8468 16.7709 20.8468C17.5957 20.8468 18.3922 20.728 19.1307 20.5141C19.1979 20.4935 19.2692 20.4819 19.3433 20.4819C19.482 20.4819 19.608 20.5245 19.7271 20.5939L21.3093 21.5149C21.3536 21.5401 21.3964 21.5601 21.4488 21.5601C21.582 21.5601 21.6898 21.4512 21.6898 21.3174C21.6898 21.2569 21.6659 21.1972 21.6509 21.1396C21.6418 21.1053 21.4471 20.3724 21.3252 19.9149C21.3112 19.8634 21.2997 19.8139 21.2997 19.7602C21.2997 19.5972 21.3797 19.4524 21.5023 19.3644ZM14.3614 13.7416C13.863 13.7416 13.4588 13.3345 13.4588 12.8322C13.4588 12.3298 13.863 11.9225 14.3614 11.9225C14.8599 11.9225 15.2639 12.3298 15.2639 12.8322C15.2639 13.3345 14.8599 13.7416 14.3614 13.7416ZM19.1807 13.7416C18.6822 13.7416 18.2786 13.3345 18.2786 12.8322C18.2786 12.3298 18.6822 11.9225 19.1807 11.9225C19.6793 11.9225 20.0833 12.3298 20.0833 12.8322C20.0833 13.3345 19.6793 13.7416 19.1807 13.7416Z" fill="#E7E7E9"/>
<path fill-rule="evenodd" clip-rule="evenodd" d="M8.67465 2C3.88375 2 0 5.26217 0 9.28589C0 11.4816 1.1686 13.4578 2.99725 14.7933C3.14416 14.899 3.24022 15.0722 3.24022 15.2684C3.24022 15.333 3.22653 15.3919 3.20958 15.454C3.06353 16.0032 2.82968 16.8826 2.81881 16.9236C2.80056 16.9927 2.77231 17.0645 2.77231 17.1366C2.77231 17.2977 2.90162 17.4278 3.06136 17.4278C3.12439 17.4278 3.17546 17.4046 3.22827 17.3737L5.12777 16.2686C5.27034 16.1858 5.42138 16.1347 5.58808 16.1347C5.67697 16.1347 5.76238 16.148 5.84301 16.1727C6.72908 16.4296 7.68469 16.5722 8.67465 16.5722C8.8346 16.5722 8.99326 16.5679 9.15104 16.5609C8.9624 15.9924 8.85981 15.394 8.85981 14.7751C8.85981 11.1054 12.4017 8.13011 16.7712 8.13011C16.9294 8.13011 16.9698 8.13511 17.1257 8.14271C16.4724 4.6619 13.0024 2 8.67465 2ZM5.78346 7.98819C5.21665 7.98819 4.75743 7.52527 4.75743 6.95455C4.75743 6.38362 5.21665 5.92091 5.78346 5.92091C6.3494 5.92091 6.80862 6.38362 6.80862 6.95455C6.80862 7.52527 6.3494 7.98819 5.78346 7.98819ZM11.5663 7.98797C10.9999 7.98797 10.5407 7.52527 10.5407 6.95455C10.5407 6.38362 10.9999 5.92091 11.5663 5.92091C12.1326 5.92091 12.5919 6.38362 12.5919 6.95455C12.5919 7.52527 12.1326 7.98797 11.5663 7.98797Z" fill="#E7E7E9"/>
</svg>
