<svg width="24" height="24" viewBox="0 0 24 24" fill="none" xmlns="http://www.w3.org/2000/svg">
<path fill-rule="evenodd" clip-rule="evenodd" d="M0 9.27337C0 11.4554 1.17959 13.4488 3.00258 14.7688C3.16344 14.8766 3.24386 15.0382 3.24386 15.2537C3.24386 15.3076 3.21705 15.3884 3.21705 15.4423C3.08301 15.981 2.84173 16.87 2.81492 16.8969C2.78811 16.9778 2.7613 17.0316 2.7613 17.1125C2.7613 17.2741 2.89535 17.4088 3.0562 17.4088C3.10982 17.4088 3.16344 17.3818 3.21705 17.3549L5.12048 16.2504C5.25452 16.1696 5.41537 16.1157 5.57623 16.1157C5.65665 16.1157 5.76389 16.1157 5.84432 16.1427C6.729 16.4121 7.69412 16.5467 8.68605 16.5467C13.4848 16.5467 17.3721 13.2872 17.3721 9.27337C17.3721 5.25955 13.4848 2 8.68605 2C3.88727 2 0 5.25955 0 9.27337Z" fill="url(#paint0_linear_43_1558)"/>
<path fill-rule="evenodd" clip-rule="evenodd" d="M16.779 20.8272C17.6081 20.8272 18.4104 20.7186 19.1325 20.5015C19.186 20.4743 19.2662 20.4743 19.3465 20.4743C19.4802 20.4743 19.6139 20.5286 19.7209 20.5829L21.2988 21.5057C21.3523 21.5328 21.379 21.56 21.4325 21.56C21.5662 21.56 21.6732 21.4514 21.6732 21.3157C21.6732 21.2614 21.6465 21.2071 21.6465 21.1257C21.6465 21.0986 21.4325 20.3658 21.3255 19.9044C21.2988 19.8501 21.2988 19.7958 21.2988 19.7415C21.2988 19.5787 21.379 19.443 21.5128 19.3344C23.0372 18.2216 24 16.566 24 14.7205C24 11.355 20.7639 8.61377 16.779 8.61377C12.7942 8.61377 9.55811 11.3279 9.55811 14.7205C9.55811 18.0859 12.7942 20.8272 16.779 20.8272Z" fill="url(#paint1_linear_43_1558)"/>
<path fill-rule="evenodd" clip-rule="evenodd" d="M6.90687 6.92519C6.90687 7.55352 6.41364 8.05095 5.7906 8.05095C5.16756 8.05095 4.67432 7.55352 4.67432 6.92519C4.67432 6.29687 5.16756 5.79944 5.7906 5.79944C6.41364 5.79944 6.90687 6.29687 6.90687 6.92519Z" fill="#168743"/>
<path fill-rule="evenodd" clip-rule="evenodd" d="M12.6979 6.92519C12.6979 7.55352 12.2047 8.05095 11.5816 8.05095C10.9586 8.05095 10.4653 7.55352 10.4653 6.92519C10.4653 6.29687 10.9586 5.79944 11.5816 5.79944C12.2047 5.79944 12.6979 6.29687 12.6979 6.92519Z" fill="#168743"/>
<path fill-rule="evenodd" clip-rule="evenodd" d="M18.2793 12.8354C18.2793 13.3826 18.7134 13.8204 19.256 13.8204C19.7987 13.8204 20.2328 13.3826 20.2328 12.8354C20.2328 12.2881 19.7987 11.8503 19.256 11.8503C18.7134 11.8503 18.2793 12.2881 18.2793 12.8354Z" fill="#919191"/>
<path fill-rule="evenodd" clip-rule="evenodd" d="M13.4653 12.8354C13.4653 13.3826 13.8994 13.8204 14.4421 13.8204C14.9847 13.8204 15.4188 13.3826 15.4188 12.8354C15.4188 12.2881 14.9847 11.8503 14.4421 11.8503C13.8994 11.8503 13.4653 12.2881 13.4653 12.8354Z" fill="#919191"/>
<defs>
<linearGradient id="paint0_linear_43_1558" x1="16.8357" y1="16.5074" x2="16.8357" y2="2.06727" gradientUnits="userSpaceOnUse">
<stop stop-color="#05CD66"/>
<stop offset="1" stop-color="#61F380"/>
<stop offset="1" stop-color="#9EEE69"/>
</linearGradient>
<linearGradient id="paint1_linear_43_1558" x1="23.5486" y1="20.723" x2="23.5486" y2="8.6091" gradientUnits="userSpaceOnUse">
<stop stop-color="#E4E6E6"/>
<stop offset="1" stop-color="#F0F0F0"/>
</linearGradient>
</defs>
</svg>
