<svg width="64" height="64" viewBox="0 0 64 64" fill="none" xmlns="http://www.w3.org/2000/svg">
<path fill-rule="evenodd" clip-rule="evenodd" d="M32.0001 39.2C35.9765 39.2 39.2001 35.9764 39.2001 32C39.2001 28.0236 35.9765 24.8 32.0001 24.8C28.0236 24.8 24.8001 28.0236 24.8001 32C24.8001 35.9764 28.0236 39.2 32.0001 39.2ZM32.0001 36C34.2092 36 36.0001 34.2091 36.0001 32C36.0001 29.7909 34.2092 28 32.0001 28C29.791 28 28.0001 29.7909 28.0001 32C28.0001 34.2091 29.791 36 32.0001 36Z" fill="#2F7BF4"/>
<path d="M30.6232 21.5986C31.4999 21.4814 32.116 20.6736 31.9992 19.7943C31.8824 18.915 31.0769 18.2971 30.2001 18.4143C27.2659 18.8063 24.6287 20.135 22.5973 22.0867C21.9586 22.7004 21.9368 23.7172 22.5487 24.3578C23.1606 24.9984 24.1744 25.0202 24.8131 24.4065C26.3697 22.911 28.3848 21.8977 30.6232 21.5986Z" fill="#2F7BF4"/>
<path d="M34.717 20.0965C35.0266 19.2655 35.9493 18.8436 36.7779 19.1541C41.6745 20.9893 45.2378 25.5716 45.5966 31.0384C45.6547 31.9236 44.9863 32.6884 44.1037 32.7467C43.2211 32.8049 42.4585 32.1346 42.4004 31.2494C42.1266 27.0768 39.4047 23.568 35.6567 22.1634C34.8281 21.8528 34.4074 20.9275 34.717 20.0965Z" fill="#2F7BF4"/>
<path d="M43.1465 36.754C43.9052 37.2101 44.1515 38.1966 43.6968 38.9575C42.9892 40.1415 42.1081 41.2083 41.089 42.1232C40.4299 42.7148 39.4174 42.6585 38.8275 41.9975C38.2376 41.3365 38.2937 40.321 38.9528 39.7294C39.7337 39.0285 40.4082 38.2114 40.9494 37.3059C41.4042 36.545 42.3879 36.2979 43.1465 36.754Z" fill="#2F7BF4"/>
<path d="M27.4164 41.3175C26.6231 40.9252 25.6629 41.2521 25.2717 42.0478C24.8805 42.8434 25.2065 43.8064 25.9998 44.1987C27.8151 45.0964 29.8578 45.6 32.0132 45.6C32.5103 45.6 33.0017 45.5732 33.486 45.5209C34.3654 45.4259 35.0015 44.6339 34.9068 43.7519C34.8121 42.8699 34.0223 42.2319 33.1429 42.3269C32.7724 42.3669 32.3955 42.3875 32.0132 42.3875C30.3598 42.3875 28.8008 42.0021 27.4164 41.3175Z" fill="#2F7BF4"/>
<path d="M21.0314 26.8006C21.8753 27.0664 22.3445 27.968 22.0795 28.8143C21.7704 29.8012 21.6032 30.853 21.6032 31.947C21.6032 32.1817 21.6109 32.4143 21.626 32.6446C21.6841 33.5298 21.0157 34.2946 20.1331 34.3529C19.2505 34.4112 18.4879 33.7408 18.4298 32.8556C18.4101 32.5551 18.4001 32.2521 18.4001 31.947C18.4001 30.5227 18.6181 29.1465 19.0236 27.8517C19.2886 27.0054 20.1876 26.5348 21.0314 26.8006Z" fill="#2F7BF4"/>
<path fill-rule="evenodd" clip-rule="evenodd" d="M13.6266 39.9133L10.3665 44.8661C8.35343 47.9244 10.5409 52 14.1954 52H32.0001C43.0458 52 52.0001 43.0457 52.0001 32C52.0001 29.1891 51.4202 26.5136 50.3736 24.0867L53.6337 19.1339C55.6468 16.0756 53.4593 12 49.8048 12H32.0001C20.9544 12 12.0001 20.9543 12.0001 32C12.0001 34.8109 12.58 37.4864 13.6266 39.9133ZM16.9068 39.4385C17.1201 39.9331 17.0702 40.5019 16.7741 40.9518L13.0394 46.6255C12.4183 47.5691 13.1038 48.8 14.1954 48.8H32.0001C41.2785 48.8 48.8001 41.2784 48.8001 32C48.8001 29.6329 48.3125 27.3881 47.4352 25.3539L47.0934 24.5615C46.8801 24.0669 46.93 23.4981 47.2262 23.0482L50.9608 17.3745C51.5819 16.4309 50.8964 15.2 49.8048 15.2H32.0001C22.7217 15.2 15.2001 22.7216 15.2001 32C15.2001 34.3671 15.6877 36.6119 16.565 38.6461L16.9068 39.4385Z" fill="#2F7BF4"/>
</svg>
