<svg width="24" height="24" viewBox="0 0 24 24" fill="none" xmlns="http://www.w3.org/2000/svg">
<path d="M0 24L1.687 17.837C0.646 16.033 0.099 13.988 0.1 11.891C0.103 5.335 5.438 0 11.993 0C15.174 0.001 18.16 1.24 20.406 3.488C22.651 5.736 23.887 8.724 23.886 11.902C23.883 18.459 18.548 23.794 11.993 23.794C10.003 23.793 8.042 23.294 6.305 22.346L0 24ZM6.597 20.193C8.273 21.188 9.873 21.784 11.989 21.785C17.437 21.785 21.875 17.351 21.878 11.9C21.88 6.438 17.463 2.01 11.997 2.008C6.545 2.008 2.11 6.442 2.108 11.892C2.107 14.117 2.759 15.783 3.854 17.526L2.855 21.174L6.597 20.193ZM17.984 14.729C17.91 14.605 17.712 14.531 17.414 14.382C17.117 14.233 15.656 13.514 15.383 13.415C15.111 13.316 14.913 13.266 14.714 13.564C14.516 13.861 13.946 14.531 13.773 14.729C13.6 14.927 13.426 14.952 13.129 14.803C12.832 14.654 11.874 14.341 10.739 13.328C9.856 12.54 9.259 11.567 9.086 11.269C8.913 10.972 9.068 10.811 9.216 10.663C9.35 10.53 9.513 10.316 9.662 10.142C9.813 9.97 9.862 9.846 9.962 9.647C10.061 9.449 10.012 9.275 9.937 9.126C9.862 8.978 9.268 7.515 9.021 6.92C8.779 6.341 8.534 6.419 8.352 6.41L7.782 6.4C7.584 6.4 7.262 6.474 6.99 6.772C6.718 7.07 5.95 7.788 5.95 9.251C5.95 10.714 7.015 12.127 7.163 12.325C7.312 12.523 9.258 15.525 12.239 16.812C12.948 17.118 13.502 17.301 13.933 17.438C14.645 17.664 15.293 17.632 15.805 17.556C16.376 17.471 17.563 16.837 17.811 16.143C18.059 15.448 18.059 14.853 17.984 14.729Z" fill="#25D366"/>
</svg>
