<svg width="188" height="50" viewBox="0 0 188 50" fill="none" xmlns="http://www.w3.org/2000/svg">
<path fill-rule="evenodd" clip-rule="evenodd" d="M39.2017 12C38.9523 12 38.6949 12.0104 38.4583 12.0202L38.4566 12.0203L38.4549 12.0204C32.967 12.2882 28.2622 16.0161 26.7382 21.3078C26.3984 22.4616 26.2239 23.6654 26.2136 24.8779L26.2136 24.88V24.9712C26.2136 25.9697 26.4322 27.1037 26.602 27.8531L26.6032 27.8584L26.6045 27.8636C26.6173 27.9146 26.6326 27.9643 26.6565 28.0197C26.759 28.4085 26.8762 28.792 27.0139 29.1756C26.8096 29.5746 26.4318 30.1871 25.9881 30.8631C25.4851 31.6293 24.9196 32.444 24.4834 33.0522C24.4552 33.0877 24.4377 33.1183 24.4309 33.1302C24.4237 33.1428 24.4171 33.1555 24.412 33.1654C23.8624 34.0913 23.8683 35.253 24.3959 36.1796L24.3964 36.1804L24.3969 36.1813C24.9394 37.125 25.9427 37.7046 27.0198 37.7046H38.3199L38.3417 37.7055C38.5663 37.7149 38.7943 37.7244 39.0234 37.7244C42.4605 37.7244 45.6945 36.3955 48.1436 33.9562C50.5919 31.5276 51.9513 28.2936 51.9719 24.8652L51.9719 24.8637V24.7731C51.9719 24.0965 51.8772 23.2792 51.6843 22.355L51.6785 22.3272L51.6695 22.3003C51.6695 22.3003 51.6693 22.2998 51.6689 22.2983C51.6684 22.2968 51.6678 22.2948 51.667 22.2922C51.6653 22.2865 51.6635 22.2802 51.6609 22.2711L51.6601 22.2683C51.6578 22.26 51.6544 22.2482 51.6505 22.2352C51.5509 21.7348 51.4137 21.2376 51.2528 20.7567C51.2675 20.7194 51.2792 20.6838 51.2886 20.6509C51.3185 20.5516 51.4194 20.3383 51.6001 20.0177C51.7738 19.7095 52 19.339 52.2508 18.9445C52.7521 18.1562 53.3417 17.2888 53.7834 16.6654L53.8051 16.6348L53.8133 16.6183C53.82 16.6081 53.8299 16.5922 53.8407 16.5725C54.3919 15.6371 54.3873 14.4845 53.8602 13.5472C53.3265 12.5981 52.3201 12.0198 51.235 12.0198H39.9052L39.8835 12.0189C39.6588 12.0095 39.4309 12 39.2017 12ZM29.0046 21.88C30.2544 17.58 34.0888 14.5522 38.5808 14.3353C38.8007 14.3253 39.007 14.316 39.2017 14.316C39.3964 14.316 39.6031 14.3253 39.8123 14.3352L39.8239 14.3358H51.2548C51.5 14.3358 51.7359 14.4749 51.8592 14.6923C51.9787 14.9028 51.9821 15.1564 51.8695 15.3694C51.3445 16.1123 50.8887 16.9024 50.4475 17.6673L50.436 17.6872C49.9831 18.4722 49.545 19.2301 49.046 19.9292C48.8083 20.2541 48.761 20.6631 48.8934 21.0273L48.8948 21.0313L48.8963 21.0352C49.1133 21.6014 49.2845 22.2091 49.4085 22.8199L49.4107 22.8305L49.4133 22.8411C49.4203 22.8691 49.4272 22.8931 49.432 22.9099L49.4324 22.9114C49.4342 22.9177 49.4358 22.9231 49.4371 22.9279C49.4383 22.9323 49.4394 22.9362 49.4404 22.9399C49.5837 23.6692 49.6562 24.304 49.6562 24.783V24.8608C49.6174 30.6731 44.8451 35.4085 39.0333 35.4085C38.8386 35.4085 38.6319 35.3992 38.4227 35.3892L38.4111 35.3886H27.0297C26.7767 35.3886 26.5447 35.2526 26.4253 35.0421L26.4239 35.0396L26.4224 35.0371C26.3082 34.8412 26.3002 34.5881 26.4085 34.37C26.4246 34.3473 26.4422 34.3223 26.4614 34.2952C26.742 33.8984 27.3435 33.0478 27.9266 32.1592C28.2461 31.6723 28.5634 31.169 28.8211 30.7192C29.0692 30.2859 29.2853 29.8629 29.379 29.5438C29.4635 29.2819 29.445 29.0065 29.3441 28.7671C29.1561 28.2963 29.0048 27.814 28.8811 27.3192L28.8765 27.301L28.849 27.2183C28.6486 26.3058 28.5491 25.5406 28.5491 24.9712V24.8943C28.5587 23.8987 28.701 22.9146 28.9844 21.9603L29.0046 21.8921V21.88Z" fill="#0043E0"/>
<path fill-rule="evenodd" clip-rule="evenodd" d="M34.723 24.991C34.723 27.438 36.7155 29.431 39.1621 29.431C41.6086 29.431 43.6011 27.438 43.6011 24.991C43.6011 22.544 41.6086 20.551 39.1621 20.551C36.7155 20.551 34.723 22.544 34.723 24.991ZM37.1209 24.991C37.1209 23.8597 38.0311 22.9493 39.1621 22.9493C40.278 22.9493 41.2033 23.8604 41.2033 24.991C41.2033 26.1223 40.293 27.0327 39.1621 27.0327C38.0311 27.0327 37.1209 26.1223 37.1209 24.991Z" fill="#0043E0"/>
<path d="M38.3191 18.6189C38.9702 18.5363 39.4311 17.9415 39.3485 17.2904C39.2659 16.6393 38.6711 16.1784 38.02 16.261C37.2449 16.3594 36.4847 16.5607 35.7598 16.8609C34.6922 17.3032 33.7221 17.9514 32.9049 18.7685C32.4408 19.2326 32.4408 19.985 32.9049 20.4491C33.369 20.9132 34.1214 20.9132 34.5855 20.4491C35.182 19.8527 35.89 19.3795 36.6694 19.0567C37.1985 18.8376 37.7533 18.6906 38.3191 18.6189Z" fill="#0043E0"/>
<path d="M40.5687 17.4233C40.7895 16.8052 41.4695 16.4831 42.0876 16.7039C43.7967 17.3144 45.2753 18.4384 46.3207 19.922C47.3662 21.4056 47.9273 23.1761 47.9273 24.991C47.9273 25.6473 47.3953 26.1794 46.739 26.1794C46.0827 26.1794 45.5506 25.6473 45.5506 24.991C45.5506 23.6663 45.141 22.3739 44.3779 21.2911C43.6149 20.2082 42.5356 19.3877 41.2881 18.9421C40.67 18.7213 40.348 18.0413 40.5687 17.4233Z" fill="#0043E0"/>
<path d="M46.2739 27.8677C46.8377 28.2037 47.0223 28.9332 46.6862 29.4969C46.2272 30.2669 45.656 30.9576 44.9957 31.5486C44.5067 31.9862 43.7554 31.9446 43.3177 31.4555C42.8801 30.9664 42.9217 30.2151 43.4108 29.7775C43.8928 29.3461 44.3097 28.842 44.6447 28.2799C44.9808 27.7162 45.7102 27.5316 46.2739 27.8677Z" fill="#0043E0"/>
<path d="M34.8645 31.4079C35.139 30.8117 35.8448 30.551 36.441 30.8255C37.5192 31.3219 38.7138 31.5099 39.8924 31.3685C40.544 31.2903 41.1356 31.7552 41.2138 32.4069C41.2919 33.0585 40.827 33.6501 40.1754 33.7283C38.5608 33.922 36.9241 33.6645 35.447 32.9843C34.8508 32.7098 34.5901 32.004 34.8645 31.4079Z" fill="#0043E0"/>
<path d="M33.0033 23.0539C33.2012 22.4281 32.8544 21.7604 32.2286 21.5625C31.6029 21.3646 30.9351 21.7114 30.7372 22.3371C30.3995 23.4047 30.2679 24.5297 30.3523 25.6515C30.4016 26.306 30.9721 26.7966 31.6265 26.7474C32.281 26.6981 32.7716 26.1276 32.7223 25.4731C32.6607 24.6543 32.7568 23.8332 33.0033 23.0539Z" fill="#0043E0"/>
<path d="M61.0148 32.6215L67.3946 17.061H71.7738L78.0647 32.6215H73.93L72.5074 28.8648H66.4388L64.9939 32.6215H61.0148ZM67.5947 25.8194H71.3737L69.5064 20.84L67.5947 25.8194Z" fill="black"/>
<path d="M82.097 20.8622V27.6199C82.097 28.2572 82.2897 28.7759 82.675 29.176C83.0751 29.5613 83.5938 29.7539 84.231 29.7539C84.6904 29.7539 85.098 29.6724 85.4536 29.5094C85.8093 29.3464 86.1057 29.1167 86.3428 28.8203V20.8622H89.944V32.6215H86.3428V31.8213C85.913 32.1473 85.424 32.3992 84.8757 32.5771C84.3422 32.7549 83.779 32.8438 83.1863 32.8438C81.808 32.8438 80.6818 32.3992 79.8074 31.5101C78.9331 30.6209 78.4959 29.4872 78.4959 28.109V20.8622H82.097Z" fill="black"/>
<path d="M93.8414 29.0426V23.8632H91.4628V20.8622H93.8414V17.839L97.4425 17.061V20.8622H100.732V23.8632H97.4425V28.3313C97.4425 28.8499 97.5537 29.2204 97.7759 29.4427C98.0131 29.6502 98.4206 29.7539 98.9986 29.7539C99.2801 29.7539 99.5469 29.7391 99.7988 29.7095C100.051 29.665 100.325 29.5983 100.621 29.5094V32.4215C100.295 32.5252 99.8803 32.6067 99.3765 32.666C98.8726 32.7401 98.4502 32.7771 98.1094 32.7771C96.7015 32.7771 95.6345 32.4659 94.9084 31.8435C94.197 31.2063 93.8414 30.2726 93.8414 29.0426Z" fill="black"/>
<path d="M102.138 32.6215V17.061L105.739 16.283V21.6625C106.169 21.3365 106.651 21.0845 107.184 20.9067C107.733 20.7289 108.303 20.6399 108.896 20.6399C110.274 20.6399 111.4 21.0845 112.275 21.9737C113.149 22.8629 113.586 23.9966 113.586 25.3748V32.6215H109.985V25.8638C109.985 25.2266 109.785 24.7153 109.385 24.33C109 23.9299 108.488 23.7298 107.851 23.7298C107.392 23.7298 106.984 23.8113 106.629 23.9743C106.273 24.1373 105.977 24.367 105.739 24.6634V32.6215H102.138Z" fill="black"/>
<path d="M121.174 32.666C120.344 32.666 119.558 32.5104 118.818 32.1992C118.091 31.888 117.462 31.4656 116.928 30.9321C116.395 30.3838 115.972 29.7465 115.661 29.0204C115.35 28.2794 115.194 27.494 115.194 26.6641C115.194 25.8342 115.35 25.0562 115.661 24.33C115.987 23.6038 116.424 22.974 116.972 22.4405C117.521 21.907 118.165 21.4846 118.906 21.1734C119.662 20.8622 120.462 20.7066 121.307 20.7066C121.841 20.7066 122.359 20.7733 122.863 20.9067C123.367 21.0401 123.834 21.2327 124.264 21.4846V20.8622H127.82V32.5104C127.82 34.0961 127.294 35.3113 126.242 36.156C125.19 37.0155 123.686 37.4453 121.73 37.4453C120.796 37.4453 119.899 37.3564 119.04 37.1785C118.18 37.0007 117.402 36.7488 116.706 36.4227L117.906 33.6218C118.543 33.9182 119.173 34.1405 119.796 34.2887C120.418 34.4369 121.04 34.511 121.663 34.511C122.508 34.511 123.145 34.3406 123.575 33.9997C124.004 33.6589 124.219 33.1476 124.219 32.4659V31.7323C123.775 32.0287 123.293 32.2584 122.774 32.4215C122.256 32.5845 121.722 32.666 121.174 32.666ZM118.729 26.6641C118.729 27.5088 119.025 28.2201 119.618 28.7981C120.211 29.3612 120.937 29.6428 121.796 29.6428C122.285 29.6428 122.73 29.5687 123.13 29.4205C123.545 29.2723 123.908 29.0574 124.219 28.7759V24.619C123.908 24.3522 123.545 24.1448 123.13 23.9966C122.715 23.8335 122.278 23.752 121.818 23.752C120.959 23.752 120.225 24.0336 119.618 24.5967C119.025 25.1599 118.729 25.849 118.729 26.6641Z" fill="black"/>
<path d="M140.815 31.0655C140.074 31.6879 139.31 32.1399 138.525 32.4215C137.754 32.703 136.88 32.8438 135.902 32.8438C135.013 32.8438 134.175 32.6882 133.39 32.377C132.605 32.0658 131.923 31.636 131.345 31.0877C130.782 30.5394 130.33 29.8947 129.989 29.1538C129.663 28.398 129.5 27.5977 129.5 26.753C129.5 25.9083 129.655 25.1154 129.967 24.3745C130.293 23.6187 130.73 22.9666 131.278 22.4183C131.827 21.87 132.471 21.4402 133.212 21.129C133.968 20.8178 134.776 20.6622 135.635 20.6622C136.495 20.6622 137.288 20.8252 138.014 21.1512C138.74 21.4772 139.362 21.9218 139.881 22.485C140.414 23.0481 140.829 23.7298 141.126 24.5301C141.422 25.3155 141.57 26.1676 141.57 27.0864V27.9756H133.19C133.427 28.5239 133.798 28.9759 134.301 29.3316C134.805 29.6724 135.398 29.8429 136.08 29.8429C136.569 29.8429 137.013 29.7688 137.413 29.6206C137.814 29.4576 138.154 29.2353 138.436 28.9537L140.815 31.0655ZM135.568 23.5964C134.976 23.5964 134.464 23.7594 134.035 24.0855C133.605 24.4115 133.301 24.8709 133.123 25.4637H138.036C137.843 24.9005 137.525 24.4486 137.08 24.1077C136.65 23.7669 136.146 23.5964 135.568 23.5964Z" fill="black"/>
<path d="M147.01 32.8216C145.766 32.8216 144.743 32.4807 143.943 31.799C143.143 31.1173 142.742 30.243 142.742 29.176C142.742 28.0645 143.165 27.1976 144.01 26.5752C144.869 25.9527 146.062 25.6415 147.588 25.6415C148.048 25.6415 148.5 25.6712 148.944 25.7304C149.389 25.7897 149.826 25.8712 150.256 25.975V25.397C150.256 24.8042 150.063 24.367 149.678 24.0855C149.307 23.7891 148.752 23.6409 148.011 23.6409C147.551 23.6409 147.033 23.715 146.455 23.8632C145.877 24.0114 145.21 24.2485 144.454 24.5745L143.165 21.9292C144.113 21.4995 145.039 21.1808 145.943 20.9734C146.862 20.7511 147.766 20.6399 148.655 20.6399C150.286 20.6399 151.553 21.0327 152.457 21.8181C153.361 22.5887 153.813 23.6779 153.813 25.0858V32.6215H150.256V31.9102C149.782 32.2362 149.278 32.4733 148.744 32.6215C148.226 32.7549 147.648 32.8216 147.01 32.8216ZM146.166 29.1093C146.166 29.4798 146.329 29.7688 146.655 29.9762C146.981 30.1837 147.433 30.2874 148.011 30.2874C148.441 30.2874 148.841 30.243 149.211 30.1541C149.596 30.0652 149.945 29.9244 150.256 29.7317V28.2201C149.915 28.1312 149.567 28.0645 149.211 28.0201C148.855 27.9756 148.492 27.9534 148.122 27.9534C147.499 27.9534 147.018 28.0571 146.677 28.2646C146.336 28.4572 146.166 28.7388 146.166 29.1093Z" fill="black"/>
<path d="M155.953 32.6215V20.8622H159.554V22.0404C159.939 21.581 160.391 21.2253 160.91 20.9734C161.429 20.7214 162.007 20.5955 162.644 20.5955C162.985 20.6103 163.259 20.6399 163.467 20.6844C163.674 20.714 163.852 20.7807 164 20.8845V24.0188C163.763 23.9151 163.496 23.8335 163.2 23.7743C162.903 23.7002 162.6 23.6631 162.288 23.6631C161.725 23.6631 161.199 23.7965 160.71 24.0632C160.236 24.33 159.851 24.6931 159.554 25.1525V32.6215H155.953Z" fill="black"/>
</svg>
