<svg width="14" height="14" viewBox="0 0 14 14" fill="none" xmlns="http://www.w3.org/2000/svg">
<path d="M7.42461 8.4L2.52461 13.3C2.34128 13.4833 2.10794 13.575 1.82461 13.575C1.54128 13.575 1.30794 13.4833 1.12461 13.3C0.941276 13.1167 0.849609 12.8833 0.849609 12.6C0.849609 12.3167 0.941276 12.0833 1.12461 11.9L6.02461 7L1.12461 2.1C0.941276 1.91667 0.849609 1.68334 0.849609 1.4C0.849609 1.11667 0.941276 0.883336 1.12461 0.700003C1.30794 0.51667 1.54128 0.425003 1.82461 0.425003C2.10794 0.425003 2.34128 0.51667 2.52461 0.700003L7.42461 5.6L12.3246 0.700003C12.5079 0.51667 12.7413 0.425003 13.0246 0.425003C13.3079 0.425003 13.5413 0.51667 13.7246 0.700003C13.9079 0.883336 13.9996 1.11667 13.9996 1.4C13.9996 1.68334 13.9079 1.91667 13.7246 2.1L8.82461 7L13.7246 11.9C13.9079 12.0833 13.9996 12.3167 13.9996 12.6C13.9996 12.8833 13.9079 13.1167 13.7246 13.3C13.5413 13.4833 13.3079 13.575 13.0246 13.575C12.7413 13.575 12.5079 13.4833 12.3246 13.3L7.42461 8.4Z" fill="#505157"/>
</svg>
