<svg width="18" height="18" viewBox="0 0 18 18" fill="none" xmlns="http://www.w3.org/2000/svg">
<path d="M9.00007 3.6165C10.5962 3.6165 11.6728 4.30595 12.2867 4.88206L14.6856 2.53983C13.2123 1.17039 11.2951 0.329834 9.00007 0.329834C5.67563 0.329834 2.80452 2.23761 1.40674 5.01428L4.15507 7.14872C4.84452 5.09928 6.75229 3.6165 9.00007 3.6165Z" fill="#EA4335"/>
<path d="M17.16 9.01866C17.16 8.31977 17.1033 7.80977 16.9806 7.28088H9V10.4353H13.6844C13.59 11.2192 13.08 12.3998 11.9467 13.1931L14.6289 15.2709C16.2344 13.7881 17.16 11.6064 17.16 9.01866Z" fill="#4285F4"/>
<path d="M4.16444 10.5108C3.985 9.98194 3.88111 9.41527 3.88111 8.82972C3.88111 8.24416 3.985 7.67749 4.155 7.1486L1.40667 5.01416C0.830556 6.16638 0.5 7.46027 0.5 8.82972C0.5 10.1992 0.830556 11.493 1.40667 12.6453L4.16444 10.5108Z" fill="#FBBC05"/>
<path d="M8.99991 17.3298C11.2949 17.3298 13.2216 16.5742 14.6288 15.2709L11.9466 13.1931C11.2288 13.6936 10.2655 14.0431 8.99991 14.0431C6.75213 14.0431 4.84435 12.5603 4.16435 10.5109L1.41602 12.6453C2.81379 15.422 5.67546 17.3298 8.99991 17.3298Z" fill="#34A853"/>
</svg>
