<svg width="18" height="18" viewBox="0 0 18 18" fill="none" xmlns="http://www.w3.org/2000/svg">
<g clip-path="url(#clip0_7424_4899)">
<path d="M17.556 0.5L9.85645 6.25726L11.2882 2.86435L17.556 0.5Z" fill="#E17726"/>
<path d="M0.461993 0.506836L6.713 2.86481L8.07253 6.30221L0.461993 0.506836ZM14.4575 12.7441L17.8606 12.8096L16.6712 16.8926L12.5187 15.7372L14.4575 12.7441ZM3.54246 12.7441L5.47402 15.7372L1.32849 16.8926L0.146362 12.8096L3.54246 12.7441Z" fill="#E27625"/>
<path d="M7.88769 5.42662L8.02675 9.96583L3.86523 9.77451L5.04897 7.96982L5.06397 7.95247L7.88769 5.42662ZM10.0692 5.37598L12.936 7.95261L12.9509 7.96989L14.1346 9.77458L9.97402 9.96583L10.0692 5.37598ZM5.59591 12.7573L7.8682 14.5465L5.22862 15.8343L5.59591 12.7573ZM12.4045 12.757L12.7642 15.8344L10.1319 14.5463L12.4045 12.757Z" fill="#E27625"/>
<path d="M10.19 14.3779L12.8611 15.6849L10.3765 16.8782L10.4023 16.0895L10.19 14.3779ZM7.80916 14.3785L7.60526 16.0767L7.62201 16.8773L5.13159 15.6849L7.80916 14.3785Z" fill="#D5BFB2"/>
<path d="M7.03789 10.5581L7.73588 12.0405L5.3595 11.337L7.03789 10.5581ZM10.9621 10.5582L12.6484 11.337L10.2642 12.0403L10.9621 10.5582Z" fill="#233447"/>
<path d="M5.7775 12.7423L5.39339 15.9326L3.33453 12.8121L5.7775 12.7423ZM12.2226 12.7424L14.6656 12.8121L12.5991 15.9328L12.2226 12.7424ZM14.1947 9.59424L12.4168 11.4254L11.046 10.7923L10.3897 12.1866L9.95949 9.78896L14.1947 9.59424ZM3.8043 9.59424L8.0404 9.78896L7.61009 12.1866L6.95367 10.7925L5.59014 11.4254L3.8043 9.59424Z" fill="#CC6228"/>
<path d="M3.68451 9.21853L5.69605 11.2813L5.76572 13.3177L3.68451 9.21853ZM14.3175 9.21484L12.2325 13.3213L12.311 11.2813L14.3175 9.21484ZM7.94206 9.34419L8.02301 9.85914L8.22306 11.142L8.09444 15.0821L7.48638 11.9169L7.48617 11.8842L7.94206 9.34419ZM10.0568 9.33703L10.5139 11.8842L10.5137 11.9169L9.90411 15.09L9.88 14.2964L9.78488 11.1186L10.0568 9.33703Z" fill="#E27525"/>
<path d="M12.4898 11.1992L12.4217 12.9685L10.2997 14.6392L9.87074 14.333L10.3516 11.8301L12.4898 11.1992ZM5.51752 11.1992L7.64829 11.8301L8.12913 14.333L7.70016 14.6392L5.57808 12.9684L5.51752 11.1992Z" fill="#F5841F"/>
<path d="M4.72559 15.2939L7.44045 16.5939L7.42895 16.0388L7.65612 15.8372H10.3431L10.5785 16.038L10.5611 16.5927L13.2588 15.2972L11.9461 16.3934L10.3588 17.4951H7.63432L6.04811 16.3889L4.72559 15.2939Z" fill="#C0AC9D"/>
<path d="M9.9956 14.2046L10.3794 14.4786L10.6044 16.2923L10.2788 16.0145H7.72212L7.40277 16.2979L7.62034 14.4788L8.00431 14.2046H9.9956Z" fill="#161616"/>
<path d="M17.0477 0.65918L17.9719 3.46113L17.3947 6.29426L17.8057 6.61463L17.2496 7.04346L17.6676 7.36972L17.1141 7.87908L17.4539 8.12778L16.5521 9.19212L12.8532 8.10376L12.8212 8.08641L10.1557 5.81422L17.0477 0.65918ZM0.952267 0.65918L7.84428 5.81422L5.17876 8.08641L5.14673 8.10376L1.4479 9.19212L0.546076 8.12778L0.885609 7.87929L0.332431 7.36972L0.749627 7.04381L0.185095 6.61378L0.611613 6.29319L0.0280151 3.46128L0.952267 0.65918Z" fill="#763E1A"/>
<path d="M12.6723 7.86574L16.5914 9.01884L17.8647 12.9845H14.5055L12.191 13.014L13.8743 9.69841L12.6723 7.86574ZM5.32764 7.86574L4.12546 9.69841L5.8089 13.014L3.49547 12.9845H0.142334L1.40843 9.01891L5.32764 7.86574ZM11.4802 2.84521L10.384 5.83714L10.1513 9.87889L10.0623 11.1457L10.0552 14.382H7.94465L7.93778 11.1518L7.84848 9.87783L7.61577 5.83714L6.51972 2.84521H11.4802Z" fill="#F5841F"/>
</g>
<defs>
<clipPath id="clip0_7424_4899">
<rect width="18" height="17" fill="white" transform="translate(0 0.5)"/>
</clipPath>
</defs>
</svg>
