<svg width="16" height="16" viewBox="0 0 16 16" fill="none" xmlns="http://www.w3.org/2000/svg">
<path fill-rule="evenodd" clip-rule="evenodd" d="M3.84188 2.09135C3.84188 3.07056 3.1048 3.85408 1.9213 3.85408H1.89961C0.760107 3.85408 0.0234375 3.07056 0.0234375 2.09135C0.0234375 1.09143 0.782543 0.329834 1.94367 0.329834C3.1048 0.329834 3.81985 1.09143 3.84188 2.09135ZM3.61771 5.24543V15.4435H0.223525V5.24543H3.61771ZM15.859 15.4443L15.8591 9.59702C15.8591 6.46461 14.1847 5.00673 11.9512 5.00673C10.1491 5.00673 9.34225 5.99656 8.89176 6.69095V5.24647H5.49717C5.54191 6.20341 5.49717 15.4446 5.49717 15.4446H8.89176V9.74911C8.89176 9.44432 8.91379 9.14028 9.00353 8.92206C9.24884 8.31316 9.80737 7.68274 10.7451 7.68274C11.9738 7.68274 12.465 8.61788 12.465 9.98831V15.4443H15.859Z" fill="white"/>
</svg>
