<svg width="17" height="15" viewBox="0 0 17 15" fill="none" xmlns="http://www.w3.org/2000/svg">
<path fill-rule="evenodd" clip-rule="evenodd" d="M12.0782 4.63317C11.9936 4.62849 11.9086 4.62764 11.8227 4.62764C8.76783 4.62764 6.28959 6.70361 6.28959 9.26563C6.28959 9.6849 6.35805 10.091 6.48264 10.4775C6.34742 10.4843 6.21134 10.4899 6.07442 10.4899C5.40298 10.4899 4.75578 10.3989 4.15238 10.2309C4.11793 10.2207 4.04905 10.2011 4.04905 10.2011L1.85315 11.3195L2.43997 9.48122L2.38427 9.44592C0.934657 8.51765 0 7.05528 0 5.41006C0 2.60439 2.71935 0.329834 6.07442 0.329834C9.11312 0.329834 11.6309 2.19532 12.0782 4.63317ZM3.96063 4.4863C3.48947 4.4863 3.10762 4.11592 3.10762 3.66007C3.10762 3.2038 3.48947 2.8347 3.96063 2.8347C4.43178 2.8347 4.81449 3.2038 4.81449 3.66007C4.81449 4.11592 4.43178 4.4863 3.96063 4.4863ZM8.18825 2.8347C8.65941 2.8347 9.04084 3.2038 9.04084 3.66007C9.04084 4.11592 8.65941 4.4863 8.18825 4.4863C7.71667 4.4863 7.33567 4.11592 7.33567 3.66007C7.33567 3.2038 7.71667 2.8347 8.18825 2.8347Z" fill="white"/>
<path fill-rule="evenodd" clip-rule="evenodd" d="M11.8693 13.5877C9.0347 13.5877 6.73633 11.6661 6.73633 9.29545C6.73633 6.92564 9.0347 5.00403 11.8693 5.00403C14.7026 5.00403 17.0001 6.92564 17.0001 9.29545C17.0001 10.686 16.21 11.9213 14.9858 12.7054L14.9386 12.7347L15.4344 14.2885L13.58 13.3428C13.58 13.3428 13.5217 13.3602 13.4924 13.3679C12.983 13.5103 12.4361 13.5877 11.8693 13.5877ZM9.3621 7.81701C9.3621 7.4326 9.68527 7.12006 10.0829 7.12006C10.4813 7.12006 10.8041 7.4326 10.8041 7.81701C10.8041 8.20312 10.4813 8.51609 10.0829 8.51609C9.68527 8.51609 9.3621 8.20312 9.3621 7.81701ZM12.9337 7.81701C12.9337 7.4326 13.256 7.12006 13.654 7.12006C14.0525 7.12006 14.3748 7.4326 14.3748 7.81701C14.3748 8.20312 14.0525 8.51609 13.654 8.51609C13.256 8.51609 12.9337 8.20312 12.9337 7.81701Z" fill="white"/>
</svg>
