<svg width="194" height="36" viewBox="0 0 194 36" fill="none" xmlns="http://www.w3.org/2000/svg">
<path fill-rule="evenodd" clip-rule="evenodd" d="M20.9785 0.0639038C20.6344 0.0639038 20.2792 0.0782228 19.9527 0.0918309L19.9503 0.0919308L19.9479 0.0920476C12.3745 0.461563 5.88184 5.60611 3.77872 12.9087C3.30987 14.5011 3.06896 16.1622 3.05478 17.8355L3.05476 17.8384V17.9643C3.05476 19.3422 3.35646 20.9071 3.59082 21.9413L3.59247 21.9486L3.59428 21.9558C3.61186 22.0262 3.63299 22.0948 3.66596 22.1712C3.80749 22.7078 3.96919 23.2371 4.1592 23.7664C3.87728 24.317 3.35597 25.1622 2.74353 26.0952C2.04947 27.1525 1.26905 28.2768 0.667145 29.1162C0.628162 29.1652 0.604045 29.2074 0.594695 29.2238C0.584744 29.2412 0.575542 29.2586 0.568507 29.2723C-0.189824 30.5501 -0.181778 32.1533 0.546399 33.4319L0.547076 33.4331L0.547758 33.4343C1.2964 34.7366 2.68089 35.5366 4.16739 35.5366H19.7617L19.7917 35.5378C20.1017 35.5508 20.4163 35.5639 20.7325 35.5639C25.4757 35.5639 29.9387 33.7299 33.3184 30.3637C36.6971 27.0122 38.5731 22.5492 38.6015 17.818L38.6016 17.8159V17.6909C38.6016 16.7572 38.4709 15.6294 38.2046 14.3539L38.1966 14.3156L38.1842 14.2784C38.1842 14.2784 38.184 14.2777 38.1833 14.2756C38.1827 14.2736 38.1819 14.2709 38.1808 14.2672C38.1785 14.2594 38.176 14.2507 38.1724 14.2381L38.1713 14.2343C38.168 14.2228 38.1634 14.2066 38.158 14.1885C38.0205 13.498 37.8312 12.8119 37.6092 12.1482C37.6294 12.0968 37.6456 12.0476 37.6586 12.0022C37.6999 11.8653 37.8391 11.5708 38.0885 11.1284C38.3282 10.7031 38.6403 10.1918 38.9864 9.64745C39.6782 8.55958 40.4919 7.36255 41.1015 6.50215L41.1314 6.45995L41.1427 6.43723C41.1519 6.42312 41.1657 6.40113 41.1805 6.37406C41.9411 5.08317 41.9348 3.49252 41.2074 2.19904C40.4709 0.889354 39.0821 0.0912453 37.5846 0.0912453H21.9493L21.9194 0.0899964C21.6093 0.0770441 21.2948 0.0639038 20.9785 0.0639038ZM6.90646 13.6984C8.63117 7.76439 13.9226 3.58599 20.1217 3.2866C20.4251 3.2728 20.7098 3.25999 20.9785 3.25999C21.2472 3.25999 21.5325 3.27282 21.8211 3.28657L21.8372 3.28734H37.6119C37.9504 3.28734 38.2759 3.47934 38.4461 3.77924C38.6109 4.06981 38.6156 4.41976 38.4602 4.71372C37.7357 5.73896 37.1067 6.8293 36.4978 7.88483L36.482 7.91226C35.857 8.99566 35.2524 10.0415 34.5638 11.0063C34.2358 11.4547 34.1704 12.019 34.3531 12.5217L34.3551 12.5271L34.3572 12.5326C34.6567 13.314 34.8929 14.1526 35.064 14.9954L35.067 15.0102L35.0707 15.0248C35.0803 15.0633 35.0898 15.0965 35.0964 15.1196L35.097 15.1217C35.0995 15.1305 35.1016 15.1379 35.1035 15.1445C35.1052 15.1506 35.1067 15.1559 35.108 15.161C35.3057 16.1675 35.4059 17.0435 35.4059 17.7045V17.8119C35.3524 25.833 28.7664 32.3678 20.7462 32.3678C20.4775 32.3678 20.1922 32.355 19.9036 32.3412L19.8875 32.3405H4.18106C3.83185 32.3405 3.51177 32.1527 3.34694 31.8622L3.34496 31.8588L3.34295 31.8553C3.18531 31.585 3.17424 31.2358 3.32379 30.9347C3.34595 30.9034 3.37033 30.8689 3.39677 30.8315C3.78399 30.2839 4.614 29.11 5.41874 27.8838C5.85964 27.2119 6.29759 26.5174 6.65316 25.8965C6.99554 25.2987 7.29374 24.7149 7.42313 24.2746C7.53972 23.9132 7.51412 23.533 7.37497 23.2027C7.11554 22.553 6.90665 21.8874 6.73597 21.2045L6.72968 21.1794L6.69168 21.0654C6.41507 19.806 6.27776 18.7501 6.27776 17.9643V17.8582C6.29112 16.4842 6.48744 15.1262 6.87852 13.8092L6.90646 13.7151V13.6984Z" fill="#BABABA"/>
<path fill-rule="evenodd" clip-rule="evenodd" d="M14.7979 17.9916C14.7979 21.3685 17.5476 24.1189 20.9238 24.1189C24.3001 24.1189 27.0498 21.3685 27.0498 17.9916C27.0498 14.6147 24.3001 11.8643 20.9238 11.8643C17.5476 11.8643 14.7979 14.6147 14.7979 17.9916ZM18.107 17.9916C18.107 16.4305 19.3631 15.1741 20.9238 15.1741C22.4638 15.1741 23.7407 16.4314 23.7407 17.9916C23.7407 19.5528 22.4845 20.8092 20.9238 20.8092C19.3631 20.8092 18.107 19.5528 18.107 17.9916Z" fill="#BABABA"/>
<path d="M19.7605 9.19799C20.659 9.08401 21.295 8.26322 21.1811 7.36471C21.0671 6.46619 20.2463 5.83019 19.3478 5.94417C18.2781 6.07985 17.229 6.35768 16.2287 6.77204C14.7553 7.38233 13.4166 8.27685 12.2889 9.40452C11.6485 10.045 11.6485 11.0833 12.2889 11.7238C12.9293 12.3642 13.9677 12.3642 14.6081 11.7238C15.4312 10.9006 16.4084 10.2477 17.4838 9.80226C18.214 9.49982 18.9798 9.29703 19.7605 9.19799Z" fill="#BABABA"/>
<path d="M22.865 7.54806C23.1697 6.69512 24.1081 6.25066 24.9611 6.55533C27.3197 7.39785 29.3602 8.94903 30.8029 10.9964C32.2456 13.0437 33.02 15.487 33.02 17.9916C33.02 18.8973 32.2858 19.6316 31.38 19.6316C30.4743 19.6316 29.7401 18.8973 29.7401 17.9916C29.7401 16.1635 29.1748 14.38 28.1218 12.8857C27.0687 11.3913 25.5794 10.2591 23.8578 9.64409C23.0048 9.33942 22.5604 8.40099 22.865 7.54806Z" fill="#BABABA"/>
<path d="M30.7383 21.9614C31.5163 22.4252 31.771 23.4318 31.3072 24.2098C30.6738 25.2725 29.8856 26.2256 28.9744 27.0411C28.2994 27.6451 27.2627 27.5876 26.6587 26.9127C26.0547 26.2377 26.1122 25.201 26.7871 24.597C27.4523 24.0017 28.0275 23.306 28.4899 22.5304C28.9537 21.7524 29.9603 21.4977 30.7383 21.9614Z" fill="#BABABA"/>
<path d="M14.9932 26.847C15.372 26.0243 16.346 25.6644 17.1687 26.0432C18.6566 26.7283 20.3052 26.9877 21.9316 26.7926C22.8309 26.6848 23.6474 27.3263 23.7552 28.2256C23.8631 29.1249 23.2215 29.9413 22.3222 30.0492C20.0941 30.3165 17.8354 29.9611 15.7969 29.0225C14.9742 28.6437 14.6144 27.6697 14.9932 26.847Z" fill="#BABABA"/>
<path d="M12.4246 15.3184C12.6977 14.4549 12.2191 13.5334 11.3556 13.2602C10.492 12.9871 9.57055 13.4657 9.29741 14.3293C8.8314 15.8026 8.64972 17.3549 8.76626 18.9032C8.83425 19.8063 9.62152 20.4834 10.5247 20.4154C11.4278 20.3474 12.1049 19.5601 12.0369 18.657C11.9518 17.5269 12.0844 16.3938 12.4246 15.3184Z" fill="#BABABA"/>
<path d="M51.0806 28.5218L59.8848 7.04813H65.9281L74.6096 28.5218H68.9037L66.9404 23.3374H58.5657L56.5717 28.5218H51.0806ZM60.1609 19.1347H65.3759L62.7991 12.2632L60.1609 19.1347Z" fill="#BABABA"/>
<path d="M80.1743 12.2938V21.6195C80.1743 22.4989 80.4401 23.2147 80.9719 23.7669C81.524 24.2986 82.2398 24.5645 83.1192 24.5645C83.7532 24.5645 84.3156 24.452 84.8064 24.227C85.2973 24.0021 85.7063 23.6851 86.0335 23.2761V12.2938H91.0031V28.5218H86.0335V27.4174C85.4404 27.8673 84.7655 28.215 84.0088 28.4604C83.2726 28.7058 82.4955 28.8285 81.6774 28.8285C79.7755 28.8285 78.2212 28.215 77.0146 26.9879C75.808 25.7609 75.2046 24.1964 75.2046 22.2944V12.2938H80.1743Z" fill="#BABABA"/>
<path d="M96.3816 23.5828V16.4352H93.0992V12.2938H96.3816V8.12181L101.351 7.04813V12.2938H105.891V16.4352H101.351V22.6012C101.351 23.317 101.505 23.8282 101.811 24.135C102.139 24.4213 102.701 24.5645 103.499 24.5645C103.887 24.5645 104.255 24.544 104.603 24.5031C104.951 24.4418 105.329 24.3498 105.738 24.227V28.2457C105.288 28.3888 104.715 28.5013 104.02 28.5831C103.325 28.6854 102.742 28.7365 102.271 28.7365C100.329 28.7365 98.8562 28.307 97.8541 27.4481C96.8724 26.5687 96.3816 25.2803 96.3816 23.5828Z" fill="#BABABA"/>
<path d="M107.831 28.5218V7.04813L112.801 5.97445V13.3982C113.394 12.9483 114.059 12.6006 114.795 12.3552C115.552 12.1098 116.339 11.9871 117.157 11.9871C119.059 11.9871 120.613 12.6006 121.82 13.8277C123.027 15.0547 123.63 16.6192 123.63 18.5212V28.5218H118.66V19.1961C118.66 18.3167 118.384 17.6111 117.832 17.0794C117.3 16.5272 116.595 16.2511 115.715 16.2511C115.081 16.2511 114.519 16.3636 114.028 16.5886C113.537 16.8135 113.128 17.1305 112.801 17.5395V28.5218H107.831Z" fill="#BABABA"/>
<path d="M134.101 28.5831C132.955 28.5831 131.871 28.3684 130.849 27.9389C129.847 27.5094 128.978 26.9266 128.241 26.1903C127.505 25.4337 126.922 24.5543 126.493 23.5522C126.063 22.5296 125.849 21.4457 125.849 20.3004C125.849 19.1552 126.063 18.0815 126.493 17.0794C126.943 16.0773 127.546 15.2081 128.303 14.4719C129.059 13.7356 129.949 13.1528 130.972 12.7233C132.015 12.2938 133.119 12.0791 134.285 12.0791C135.021 12.0791 135.737 12.1711 136.432 12.3552C137.127 12.5392 137.772 12.8051 138.365 13.1528V12.2938H143.273V28.3684C143.273 30.5567 142.547 32.2336 141.095 33.3994C139.643 34.5855 137.567 35.1786 134.868 35.1786C133.579 35.1786 132.342 35.0559 131.156 34.8105C129.97 34.5651 128.896 34.2174 127.935 33.7675L129.591 29.9022C130.471 30.3112 131.34 30.618 132.199 30.8225C133.058 31.027 133.917 31.1293 134.776 31.1293C135.941 31.1293 136.821 30.8941 137.414 30.4237C138.007 29.9533 138.303 29.2478 138.303 28.307V27.2947C137.69 27.7037 137.025 28.0207 136.309 28.2457C135.594 28.4706 134.857 28.5831 134.101 28.5831ZM130.726 20.3004C130.726 21.4661 131.135 22.4478 131.953 23.2454C132.771 24.0225 133.773 24.4111 134.96 24.4111C135.634 24.4111 136.248 24.3088 136.8 24.1043C137.373 23.8998 137.874 23.6033 138.303 23.2147V17.4782C137.874 17.1101 137.373 16.8238 136.8 16.6192C136.228 16.3943 135.624 16.2818 134.99 16.2818C133.804 16.2818 132.792 16.6704 131.953 17.4475C131.135 18.2247 130.726 19.1756 130.726 20.3004Z" fill="#BABABA"/>
<path d="M161.205 26.3744C160.183 27.2334 159.129 27.8571 158.045 28.2457C156.982 28.6343 155.775 28.8285 154.426 28.8285C153.199 28.8285 152.043 28.6138 150.959 28.1843C149.875 27.7549 148.934 27.1618 148.137 26.4051C147.36 25.6484 146.736 24.7588 146.266 23.7362C145.816 22.6932 145.591 21.5889 145.591 20.4231C145.591 19.2574 145.805 18.1633 146.235 17.1407C146.685 16.0977 147.288 15.1979 148.045 14.4412C148.802 13.6845 149.691 13.0914 150.714 12.662C151.757 12.2325 152.871 12.0177 154.057 12.0177C155.244 12.0177 156.338 12.2427 157.34 12.6926C158.342 13.1426 159.201 13.7561 159.917 14.5332C160.653 15.3104 161.226 16.2511 161.635 17.3555C162.044 18.4394 162.248 19.6153 162.248 20.8833V22.1104H150.683C151.01 22.867 151.522 23.4908 152.217 23.9816C152.912 24.452 153.73 24.6872 154.671 24.6872C155.346 24.6872 155.959 24.5849 156.512 24.3804C157.064 24.1555 157.534 23.8487 157.923 23.4601L161.205 26.3744ZM153.965 16.0671C153.147 16.0671 152.442 16.292 151.849 16.7419C151.256 17.1919 150.836 17.8259 150.591 18.6439H157.371C157.105 17.8668 156.665 17.243 156.051 16.7726C155.458 16.3022 154.763 16.0671 153.965 16.0671Z" fill="#BABABA"/>
<path d="M169.756 28.7979C168.038 28.7979 166.627 28.3275 165.522 27.3867C164.418 26.446 163.866 25.2394 163.866 23.7669C163.866 22.2331 164.448 21.0367 165.614 20.1777C166.8 19.3188 168.447 18.8893 170.553 18.8893C171.187 18.8893 171.811 18.9302 172.424 19.012C173.038 19.0938 173.641 19.2063 174.234 19.3495V18.5519C174.234 17.7338 173.968 17.1305 173.437 16.7419C172.925 16.3329 172.159 16.1284 171.136 16.1284C170.502 16.1284 169.786 16.2307 168.989 16.4352C168.191 16.6397 167.271 16.9669 166.228 17.4168L164.448 13.7663C165.757 13.1732 167.036 12.7335 168.283 12.4472C169.551 12.1405 170.799 11.9871 172.026 11.9871C174.275 11.9871 176.024 12.529 177.271 13.6129C178.519 14.6764 179.143 16.1795 179.143 18.1224V28.5218H174.234V27.5401C173.58 27.99 172.885 28.3173 172.148 28.5218C171.433 28.7058 170.635 28.7979 169.756 28.7979ZM168.59 23.6749C168.59 24.1861 168.815 24.5849 169.265 24.8713C169.715 25.1576 170.338 25.3007 171.136 25.3007C171.729 25.3007 172.281 25.2394 172.793 25.1167C173.324 24.994 173.805 24.7997 174.234 24.5338V22.4478C173.764 22.3251 173.283 22.2331 172.793 22.1717C172.302 22.1104 171.801 22.0797 171.289 22.0797C170.43 22.0797 169.766 22.2228 169.295 22.5092C168.825 22.775 168.59 23.1636 168.59 23.6749Z" fill="#BABABA"/>
<path d="M182.096 28.5218V12.2938H187.066V13.9197C187.598 13.2857 188.221 12.7949 188.937 12.4472C189.653 12.0995 190.451 11.9257 191.33 11.9257C191.8 11.9462 192.179 11.9871 192.465 12.0484C192.751 12.0893 192.997 12.1814 193.201 12.3245V16.6499C192.874 16.5068 192.506 16.3943 192.097 16.3125C191.688 16.2102 191.269 16.1591 190.839 16.1591C190.062 16.1591 189.336 16.3431 188.661 16.7113C188.007 17.0794 187.475 17.5804 187.066 18.2144V28.5218H182.096Z" fill="#BABABA"/>
</svg>
